<svg width="24" height="24" viewBox="0 0 24 24" fill="none" xmlns="http://www.w3.org/2000/svg">
<g clip-path="url(#clip0_0_664)">
<path d="M19.7224 22.7224C19.0003 23.4444 18.0211 23.85 17 23.85H7C5.97892 23.85 4.99965 23.4444 4.27764 22.7224C3.55562 22.0003 3.15 21.0211 3.15 20V4C3.15 2.97892 3.55562 1.99965 4.27764 1.27764C4.99965 0.555624 5.97892 0.15 7 0.15H17C18.0211 0.15 19.0003 0.555624 19.7224 1.27764C20.4444 1.99965 20.85 2.97892 20.85 4V20C20.85 21.0211 20.4444 22.0003 19.7224 22.7224ZM4.85 4V20C4.85 20.5702 5.07652 21.1171 5.47972 21.5203C5.88292 21.9235 6.42978 22.15 7 22.15H17C17.5702 22.15 18.1171 21.9235 18.5203 21.5203C18.9235 21.1171 19.15 20.5702 19.15 20V4C19.15 3.42978 18.9235 2.88292 18.5203 2.47972C18.1171 2.07652 17.5702 1.85 17 1.85H7C6.42978 1.85 5.88292 2.07652 5.47972 2.47972C5.07652 2.88292 4.85 3.42978 4.85 4Z" fill="#2858E9" stroke="white" stroke-width="0.3"/>
<path d="M16 18.85H8C7.77457 18.85 7.55837 18.7604 7.39896 18.601C7.23955 18.4416 7.15 18.2254 7.15 18C7.15 17.7746 7.23955 17.5584 7.39896 17.399C7.55837 17.2396 7.77457 17.15 8 17.15H16C16.2254 17.15 16.4416 17.2396 16.601 17.399C16.7604 17.5584 16.85 17.7746 16.85 18C16.85 18.2254 16.7604 18.4416 16.601 18.601C16.4416 18.7604 16.2254 18.85 16 18.85Z" fill="#2858E9" stroke="white" stroke-width="0.3"/>
<path d="M13 4.85H11C10.7746 4.85 10.5584 4.76045 10.399 4.60104C10.2396 4.44163 10.15 4.22543 10.15 4C10.15 3.77457 10.2396 3.55837 10.399 3.39896C10.5584 3.23955 10.7746 3.15 11 3.15H13C13.2254 3.15 13.4416 3.23955 13.601 3.39896C13.7604 3.55837 13.85 3.77457 13.85 4C13.85 4.22543 13.7604 4.44163 13.601 4.60104C13.4416 4.76045 13.2254 4.85 13 4.85Z" fill="#2858E9" stroke="white" stroke-width="0.3"/>
</g>
<defs>
<clipPath id="clip0_0_664">
<rect width="24" height="24" fill="white"/>
</clipPath>
</defs>
</svg>
