<svg width="23" height="22" viewBox="0 0 23 22" fill="none" xmlns="http://www.w3.org/2000/svg">
<path fill-rule="evenodd" clip-rule="evenodd" d="M19.75 10.9999C19.75 11.5062 19.3396 11.9166 18.8333 11.9166L4.16666 11.9166C3.6604 11.9166 3.24999 11.5062 3.24999 10.9999C3.24999 10.4937 3.6604 10.0833 4.16666 10.0833L18.8333 10.0833C19.3396 10.0833 19.75 10.4937 19.75 10.9999Z" fill="white"/>
<path d="M17.8911 11C17.8056 10.8581 17.6263 10.6032 17.4303 10.3813C17.04 9.93962 16.5022 9.43511 15.9407 8.94763C15.3838 8.46411 14.8242 8.01501 14.4022 7.68568C14.1917 7.52139 13.8284 7.24695 13.7063 7.15477C13.2988 6.85454 13.2117 6.28076 13.5119 5.87314C13.8121 5.4655 14.386 5.37841 14.7936 5.67863L14.797 5.6812C14.9293 5.78116 15.3131 6.071 15.5301 6.24036C15.9675 6.58168 16.5537 7.05195 17.1426 7.56327C17.727 8.07065 18.335 8.63647 18.8041 9.16738C19.0378 9.43179 19.2563 9.70914 19.4215 9.98305C19.5714 10.2318 19.75 10.5937 19.75 11C19.75 11.4062 19.5714 11.7682 19.4215 12.0169C19.2563 12.2909 19.0378 12.5682 18.8041 12.8326C18.335 13.3635 17.727 13.9294 17.1426 14.4367C16.5537 14.9481 15.9675 15.4183 15.5301 15.7596C15.3131 15.929 14.9296 16.2186 14.7972 16.3186L14.7936 16.3214C14.386 16.6216 13.8121 16.5345 13.5119 16.1269C13.2117 15.7192 13.2988 15.1455 13.7063 14.8452C13.8284 14.753 14.1917 14.4786 14.4022 14.3143C14.8242 13.985 15.3838 13.5359 15.9407 13.0524C16.5022 12.5649 17.04 12.0604 17.4303 11.6187C17.6263 11.3968 17.8056 11.1419 17.8911 11Z" fill="white"/>
</svg>
