<svg width="468" height="400" viewBox="0 0 468 400" fill="none" xmlns="http://www.w3.org/2000/svg">
<path d="M947.475 200.001C947.475 -61.4917 735.494 -273.473 474.001 -273.473C212.509 -273.473 0.527344 -61.4917 0.527344 200.001C0.527344 461.493 212.509 673.475 474.001 673.475C735.494 673.475 947.475 461.493 947.475 200.001Z" stroke="url(#paint0_linear_0_357)" stroke-width="2.5" stroke-miterlimit="10"/>
<path d="M929.178 200.001C929.178 -51.3863 725.388 -255.176 474.001 -255.176C222.614 -255.176 18.8242 -51.3863 18.8242 200.001C18.8242 451.388 222.614 655.178 474.001 655.178C725.388 655.178 929.178 451.388 929.178 200.001Z" stroke="url(#paint1_linear_0_357)" stroke-width="2.5" stroke-miterlimit="10"/>
<path d="M910.874 200.001C910.874 -41.2783 715.278 -236.874 473.999 -236.874C232.72 -236.874 37.125 -41.2783 37.125 200.001C37.125 441.28 232.72 636.875 473.999 636.875C715.278 636.875 910.874 441.28 910.874 200.001Z" stroke="url(#paint2_linear_0_357)" stroke-width="2.5" stroke-miterlimit="10"/>
<path d="M892.58 200.001C892.58 -31.1729 705.177 -218.576 474.003 -218.576C242.829 -218.576 55.4258 -31.1729 55.4258 200.001C55.4258 431.175 242.829 618.578 474.003 618.578C705.177 618.578 892.58 431.175 892.58 200.001Z" stroke="url(#paint3_linear_0_357)" stroke-width="2.5" stroke-miterlimit="10"/>
<path d="M874.283 200.001C874.283 -21.0674 695.071 -200.279 474.003 -200.279C252.934 -200.279 73.7227 -21.0674 73.7227 200.001C73.7227 421.07 252.934 600.281 474.003 600.281C695.071 600.281 874.283 421.07 874.283 200.001Z" stroke="url(#paint4_linear_0_357)" stroke-width="2.5" stroke-miterlimit="10"/>
<path d="M855.985 200.001C855.985 -10.9619 684.966 -181.981 474.002 -181.981C263.039 -181.981 92.0195 -10.9619 92.0195 200.001C92.0195 410.965 263.039 581.984 474.002 581.984C684.966 581.984 855.985 410.965 855.985 200.001Z" stroke="url(#paint5_linear_0_357)" stroke-width="2.5" stroke-miterlimit="10"/>
<path d="M837.681 200.001C837.681 -0.854132 674.856 -163.68 474.001 -163.68C273.146 -163.68 110.32 -0.854132 110.32 200.001C110.32 400.856 273.146 563.682 474.001 563.682C674.856 563.682 837.681 400.856 837.681 200.001Z" stroke="url(#paint6_linear_0_357)" stroke-width="2.5" stroke-miterlimit="10"/>
<path d="M819.384 200.001C819.384 9.25128 664.751 -145.382 474.001 -145.382C283.251 -145.382 128.617 9.25128 128.617 200.001C128.617 390.751 283.251 545.385 474.001 545.385C664.751 545.385 819.384 390.751 819.384 200.001Z" stroke="url(#paint7_linear_0_357)" stroke-width="2.5" stroke-miterlimit="10"/>
<path d="M801.087 200.002C801.087 19.3568 654.645 -127.085 474 -127.085C293.356 -127.085 146.914 19.3568 146.914 200.002C146.914 380.646 293.356 527.088 474 527.088C654.645 527.088 801.087 380.646 801.087 200.002Z" stroke="url(#paint8_linear_0_357)" stroke-width="2.5" stroke-miterlimit="10"/>
<path d="M782.789 200C782.789 29.4603 644.54 -108.789 474 -108.789C303.461 -108.789 165.211 29.4603 165.211 200C165.211 370.539 303.461 508.789 474 508.789C644.54 508.789 782.789 370.539 782.789 200Z" stroke="url(#paint9_linear_0_357)" stroke-width="2.5" stroke-miterlimit="10"/>
<path d="M764.489 200.001C764.489 39.5701 634.434 -90.4853 474.002 -90.4853C313.571 -90.4853 183.516 39.5701 183.516 200.001C183.516 360.433 313.571 490.488 474.002 490.488C634.434 490.488 764.489 360.433 764.489 200.001Z" stroke="url(#paint10_linear_0_357)" stroke-width="2.5" stroke-miterlimit="10"/>
<path d="M746.192 200C746.192 49.6736 624.328 -72.1899 474.002 -72.1899C323.676 -72.1899 201.813 49.6736 201.813 200C201.813 350.326 323.676 472.189 474.002 472.189C624.328 472.189 746.192 350.326 746.192 200Z" stroke="url(#paint11_linear_0_357)" stroke-width="2.5" stroke-miterlimit="10"/>
<path d="M727.894 200C727.894 59.7792 614.223 -53.8924 474.002 -53.8924C333.781 -53.8924 220.109 59.7792 220.109 200C220.109 340.221 333.781 453.893 474.002 453.893C614.223 453.893 727.894 340.221 727.894 200Z" stroke="url(#paint12_linear_0_357)" stroke-width="2.5" stroke-miterlimit="10"/>
<path d="M709.597 200C709.597 69.8846 604.117 -35.595 474.002 -35.595C343.886 -35.595 238.406 69.8846 238.406 200C238.406 330.116 343.886 435.596 474.002 435.596C604.117 435.596 709.597 330.116 709.597 200Z" stroke="url(#paint13_linear_0_357)" stroke-width="2.5" stroke-miterlimit="10"/>
<path d="M691.293 200C691.293 79.9924 594.008 -17.293 474 -17.293C353.992 -17.293 256.707 79.9924 256.707 200C256.707 320.008 353.992 417.293 474 417.293C594.008 417.293 691.293 320.008 691.293 200Z" stroke="url(#paint14_linear_0_357)" stroke-width="2.5" stroke-miterlimit="10"/>
<path d="M672.996 200C672.996 90.0979 583.902 1.00444 474 1.00444C364.097 1.00444 275.004 90.0979 275.004 200C275.004 309.903 364.097 398.996 474 398.996C583.902 398.996 672.996 309.903 672.996 200Z" stroke="url(#paint15_linear_0_357)" stroke-width="2.5" stroke-miterlimit="10"/>
<path d="M654.698 200.001C654.698 100.203 573.797 19.3018 473.999 19.3018C374.202 19.3018 293.301 100.203 293.301 200.001C293.301 299.798 374.202 380.699 473.999 380.699C573.797 380.699 654.698 299.798 654.698 200.001Z" stroke="url(#paint16_linear_0_357)" stroke-width="2.5" stroke-miterlimit="10"/>
<path d="M636.405 200.001C636.405 110.309 563.695 37.5993 474.003 37.5993C384.311 37.5993 311.602 110.309 311.602 200.001C311.602 289.693 384.311 362.402 474.003 362.402C563.695 362.402 636.405 289.693 636.405 200.001Z" stroke="url(#paint17_linear_0_357)" stroke-width="2.5" stroke-miterlimit="10"/>
<path d="M618.101 200C618.101 120.417 553.585 55.9013 474.001 55.9013C394.418 55.9013 329.902 120.417 329.902 200C329.902 279.584 394.418 344.1 474.001 344.1C553.585 344.1 618.101 279.584 618.101 200Z" stroke="url(#paint18_linear_0_357)" stroke-width="2.5" stroke-miterlimit="10"/>
<path d="M599.803 200.001C599.803 130.522 543.48 74.1987 474.001 74.1987C404.523 74.1987 348.199 130.522 348.199 200.001C348.199 269.479 404.523 325.803 474.001 325.803C543.48 325.803 599.803 269.479 599.803 200.001Z" stroke="url(#paint19_linear_0_357)" stroke-width="2.5" stroke-miterlimit="10"/>
<path d="M581.506 200.001C581.506 140.628 533.374 92.4962 474.001 92.4962C414.628 92.4962 366.496 140.628 366.496 200.001C366.496 259.374 414.628 307.506 474.001 307.506C533.374 307.506 581.506 259.374 581.506 200.001Z" stroke="url(#paint20_linear_0_357)" stroke-width="2.5" stroke-miterlimit="10"/>
<path d="M563.208 200.001C563.208 150.733 523.269 110.794 474.001 110.794C424.733 110.794 384.793 150.733 384.793 200.001C384.793 249.269 424.733 289.209 474.001 289.209C523.269 289.209 563.208 249.269 563.208 200.001Z" stroke="url(#paint21_linear_0_357)" stroke-width="2.5" stroke-miterlimit="10"/>
<path d="M544.908 200.001C544.908 160.841 513.163 129.096 474.003 129.096C434.843 129.096 403.098 160.841 403.098 200.001C403.098 239.161 434.843 270.906 474.003 270.906C513.163 270.906 544.908 239.161 544.908 200.001Z" stroke="url(#paint22_linear_0_357)" stroke-width="2.5" stroke-miterlimit="10"/>
<path d="M526.611 200.001C526.611 170.946 503.057 147.393 474.003 147.393C444.948 147.393 421.395 170.946 421.395 200.001C421.395 229.056 444.948 252.609 474.003 252.609C503.057 252.609 526.611 229.056 526.611 200.001Z" stroke="url(#paint23_linear_0_357)" stroke-width="2.5" stroke-miterlimit="10"/>
<defs>
<linearGradient id="paint0_linear_0_357" x1="0.527344" y1="200.001" x2="947.475" y2="200.001" gradientUnits="userSpaceOnUse">
<stop stop-color="#6BF6FF"/>
<stop offset="1" stop-color="#6BF6FF" stop-opacity="0"/>
</linearGradient>
<linearGradient id="paint1_linear_0_357" x1="18.8242" y1="200.001" x2="929.178" y2="200.001" gradientUnits="userSpaceOnUse">
<stop stop-color="#6BF6FF"/>
<stop offset="1" stop-color="#6BF6FF" stop-opacity="0"/>
</linearGradient>
<linearGradient id="paint2_linear_0_357" x1="37.125" y1="200.001" x2="910.874" y2="200.001" gradientUnits="userSpaceOnUse">
<stop stop-color="#6BF6FF"/>
<stop offset="1" stop-color="#6BF6FF" stop-opacity="0"/>
</linearGradient>
<linearGradient id="paint3_linear_0_357" x1="55.4258" y1="200.001" x2="892.58" y2="200.001" gradientUnits="userSpaceOnUse">
<stop stop-color="#6BF6FF"/>
<stop offset="1" stop-color="#6BF6FF" stop-opacity="0"/>
</linearGradient>
<linearGradient id="paint4_linear_0_357" x1="73.7227" y1="200.001" x2="874.283" y2="200.001" gradientUnits="userSpaceOnUse">
<stop stop-color="#6BF6FF"/>
<stop offset="1" stop-color="#6BF6FF" stop-opacity="0"/>
</linearGradient>
<linearGradient id="paint5_linear_0_357" x1="92.0195" y1="200.001" x2="855.985" y2="200.001" gradientUnits="userSpaceOnUse">
<stop stop-color="#6BF6FF"/>
<stop offset="1" stop-color="#6BF6FF" stop-opacity="0"/>
</linearGradient>
<linearGradient id="paint6_linear_0_357" x1="110.32" y1="200.001" x2="837.681" y2="200.001" gradientUnits="userSpaceOnUse">
<stop stop-color="#6BF6FF"/>
<stop offset="1" stop-color="#6BF6FF" stop-opacity="0"/>
</linearGradient>
<linearGradient id="paint7_linear_0_357" x1="128.617" y1="200.001" x2="819.384" y2="200.001" gradientUnits="userSpaceOnUse">
<stop stop-color="#6BF6FF"/>
<stop offset="1" stop-color="#6BF6FF" stop-opacity="0"/>
</linearGradient>
<linearGradient id="paint8_linear_0_357" x1="146.914" y1="200.002" x2="801.087" y2="200.002" gradientUnits="userSpaceOnUse">
<stop stop-color="#6BF6FF"/>
<stop offset="1" stop-color="#6BF6FF" stop-opacity="0"/>
</linearGradient>
<linearGradient id="paint9_linear_0_357" x1="165.211" y1="200" x2="782.789" y2="200" gradientUnits="userSpaceOnUse">
<stop stop-color="#6BF6FF"/>
<stop offset="1" stop-color="#6BF6FF" stop-opacity="0"/>
</linearGradient>
<linearGradient id="paint10_linear_0_357" x1="183.516" y1="200.001" x2="764.489" y2="200.001" gradientUnits="userSpaceOnUse">
<stop stop-color="#6BF6FF"/>
<stop offset="1" stop-color="#6BF6FF" stop-opacity="0"/>
</linearGradient>
<linearGradient id="paint11_linear_0_357" x1="201.812" y1="200" x2="746.192" y2="200" gradientUnits="userSpaceOnUse">
<stop stop-color="#6BF6FF"/>
<stop offset="1" stop-color="#6BF6FF" stop-opacity="0"/>
</linearGradient>
<linearGradient id="paint12_linear_0_357" x1="220.109" y1="200" x2="727.894" y2="200" gradientUnits="userSpaceOnUse">
<stop stop-color="#6BF6FF"/>
<stop offset="1" stop-color="#6BF6FF" stop-opacity="0"/>
</linearGradient>
<linearGradient id="paint13_linear_0_357" x1="238.406" y1="200" x2="709.597" y2="200" gradientUnits="userSpaceOnUse">
<stop stop-color="#6BF6FF"/>
<stop offset="1" stop-color="#6BF6FF" stop-opacity="0"/>
</linearGradient>
<linearGradient id="paint14_linear_0_357" x1="256.707" y1="200" x2="691.293" y2="200" gradientUnits="userSpaceOnUse">
<stop stop-color="#6BF6FF"/>
<stop offset="1" stop-color="#6BF6FF" stop-opacity="0"/>
</linearGradient>
<linearGradient id="paint15_linear_0_357" x1="275.004" y1="200" x2="672.996" y2="200" gradientUnits="userSpaceOnUse">
<stop stop-color="#6BF6FF"/>
<stop offset="1" stop-color="#6BF6FF" stop-opacity="0"/>
</linearGradient>
<linearGradient id="paint16_linear_0_357" x1="293.301" y1="200.001" x2="654.698" y2="200.001" gradientUnits="userSpaceOnUse">
<stop stop-color="#6BF6FF"/>
<stop offset="1" stop-color="#6BF6FF" stop-opacity="0"/>
</linearGradient>
<linearGradient id="paint17_linear_0_357" x1="311.602" y1="200.001" x2="636.405" y2="200.001" gradientUnits="userSpaceOnUse">
<stop stop-color="#6BF6FF"/>
<stop offset="1" stop-color="#6BF6FF" stop-opacity="0"/>
</linearGradient>
<linearGradient id="paint18_linear_0_357" x1="329.902" y1="200" x2="618.101" y2="200" gradientUnits="userSpaceOnUse">
<stop stop-color="#6BF6FF"/>
<stop offset="1" stop-color="#6BF6FF" stop-opacity="0"/>
</linearGradient>
<linearGradient id="paint19_linear_0_357" x1="348.199" y1="200.001" x2="599.803" y2="200.001" gradientUnits="userSpaceOnUse">
<stop stop-color="#6BF6FF"/>
<stop offset="1" stop-color="#6BF6FF" stop-opacity="0"/>
</linearGradient>
<linearGradient id="paint20_linear_0_357" x1="366.496" y1="200.001" x2="581.506" y2="200.001" gradientUnits="userSpaceOnUse">
<stop stop-color="#6BF6FF"/>
<stop offset="1" stop-color="#6BF6FF" stop-opacity="0"/>
</linearGradient>
<linearGradient id="paint21_linear_0_357" x1="384.793" y1="200.001" x2="563.208" y2="200.001" gradientUnits="userSpaceOnUse">
<stop stop-color="#6BF6FF"/>
<stop offset="1" stop-color="#6BF6FF" stop-opacity="0"/>
</linearGradient>
<linearGradient id="paint22_linear_0_357" x1="403.098" y1="200.001" x2="544.908" y2="200.001" gradientUnits="userSpaceOnUse">
<stop stop-color="#6BF6FF"/>
<stop offset="1" stop-color="#6BF6FF" stop-opacity="0"/>
</linearGradient>
<linearGradient id="paint23_linear_0_357" x1="421.395" y1="200.001" x2="526.611" y2="200.001" gradientUnits="userSpaceOnUse">
<stop stop-color="#6BF6FF"/>
<stop offset="1" stop-color="#6BF6FF" stop-opacity="0"/>
</linearGradient>
</defs>
</svg>
