<svg width="19" height="14" viewBox="0 0 19 14" fill="none" xmlns="http://www.w3.org/2000/svg">
<g clip-path="url(#clip0_0_823)">
<path d="M14.958 4.22895C14.8054 4.22895 14.6565 4.24187 14.5096 4.26237C14.3797 1.88662 12.4129 0 10.0057 0C8.04007 0 6.54345 1.43014 5.92443 3.18385C5.59444 3.09804 5.0738 2.87776 4.71645 2.87776C2.4702 2.87776 0.649292 4.69828 0.649292 6.94569C0.649292 9.19232 2.4702 11.0128 4.71645 11.0128C4.82736 11.0128 4.95265 11.0128 5.08556 11.0128C4.62227 11.8521 4.81101 12.9306 5.58229 13.5534C5.93884 13.8413 6.38849 14 6.84611 14C7.45939 14 8.03055 13.7266 8.4141 13.2504C8.84888 12.7119 8.9655 12.0177 8.77599 11.398C8.99439 11.4549 9.22146 11.4838 9.45197 11.4838C9.88984 11.4838 10.3182 11.3767 10.6991 11.1769C10.7014 11.6843 10.9247 12.1818 11.3405 12.5175C11.6473 12.7651 12.0347 12.9025 12.4296 12.9025C12.43 12.9025 12.43 12.9025 12.43 12.9025C12.9575 12.9025 13.45 12.6671 13.7811 12.2562C14.066 11.9038 14.197 11.4633 14.1575 11.0129C14.5 11.0129 14.7754 11.0129 14.958 11.0129C16.8317 11.0129 18.3507 9.49463 18.3507 7.62093C18.3507 5.74798 16.8317 4.22895 14.958 4.22895ZM13.2807 11.8521C12.9013 12.3215 12.214 12.3952 11.7446 12.0162C11.4339 11.7655 11.3018 11.3812 11.3553 11.0128C11.3758 10.8708 11.4218 10.7311 11.4996 10.6027L10.9668 10.1698C10.2689 10.94 9.10265 11.063 8.25805 10.4562L7.80878 11.0106C7.80956 11.0114 7.81069 11.0129 7.81147 11.0129C8.30513 11.502 8.35908 12.2942 7.91326 12.8463C7.43857 13.4365 6.57574 13.5276 5.98638 13.0522C5.39778 12.5775 5.30513 11.7147 5.78055 11.126C5.81436 11.0835 5.85348 11.0501 5.89069 11.0129C6.3544 10.5572 7.07782 10.4858 7.61899 10.8549L8.06747 10.3005C7.30454 9.6002 7.18569 8.43591 7.79519 7.59512L7.25136 7.15305C6.91532 7.44395 6.40945 7.46293 6.05135 7.17432C5.64917 6.84925 5.58615 6.2599 5.91122 5.85659C6.23629 5.45403 6.82564 5.39101 7.22895 5.71604C7.61024 6.0244 7.68236 6.56897 7.41199 6.96697L7.95011 7.40444C8.64847 6.64799 9.80331 6.5295 10.641 7.12873L11.0709 6.59864C10.6491 6.18088 10.5986 5.50646 10.9794 5.03404C11.3857 4.53129 12.1225 4.45227 12.6264 4.85784C13.1296 5.26494 13.2082 6.00167 12.8023 6.50521C12.4229 6.97462 11.7594 7.06953 11.2635 6.75207L10.8321 7.28294C11.5961 7.97939 11.72 9.13692 11.1214 9.97919L11.6508 10.4091C12.0397 10.008 12.6739 9.95791 13.1167 10.3157C13.3407 10.4964 13.4717 10.7486 13.5094 11.0129C13.5499 11.3022 13.4781 11.6068 13.2807 11.8521Z" fill="#484C4D"/>
<path d="M14.958 4.22895C14.8054 4.22895 14.6565 4.24187 14.5096 4.26237C14.3797 1.88662 12.4129 0 10.0057 0C8.04007 0 6.54345 1.43014 5.92443 3.18385C5.59444 3.09804 5.0738 2.87776 4.71645 2.87776C2.4702 2.87776 0.649292 4.69828 0.649292 6.94569C0.649292 9.19232 2.4702 11.0128 4.71645 11.0128C4.82736 11.0128 4.95265 11.0128 5.08556 11.0128C4.62227 11.8521 4.81101 12.9306 5.58229 13.5534C5.93884 13.8413 6.38849 14 6.84611 14C7.45939 14 8.03055 13.7266 8.4141 13.2504C8.84888 12.7119 8.9655 12.0177 8.77599 11.398C8.99439 11.4549 9.22146 11.4838 9.45197 11.4838C9.88984 11.4838 10.3182 11.3767 10.6991 11.1769C10.7014 11.6843 10.9247 12.1818 11.3405 12.5175C11.6473 12.7651 12.0347 12.9025 12.4296 12.9025C12.43 12.9025 12.43 12.9025 12.43 12.9025C12.9575 12.9025 13.45 12.6671 13.7811 12.2562C14.066 11.9038 14.197 11.4633 14.1575 11.0129C14.5 11.0129 14.7754 11.0129 14.958 11.0129C16.8317 11.0129 18.3507 9.49463 18.3507 7.62093C18.3507 5.74798 16.8317 4.22895 14.958 4.22895ZM13.2807 11.8521C12.9013 12.3215 12.214 12.3952 11.7446 12.0162C11.4339 11.7655 11.3018 11.3812 11.3553 11.0128C11.3758 10.8708 11.4218 10.7311 11.4996 10.6027L10.9668 10.1698C10.2689 10.94 9.10265 11.063 8.25805 10.4562L7.80878 11.0106C7.80956 11.0114 7.81069 11.0129 7.81147 11.0129C8.30513 11.502 8.35908 12.2942 7.91326 12.8463C7.43857 13.4365 6.57574 13.5276 5.98638 13.0522C5.39778 12.5775 5.30513 11.7147 5.78055 11.126C5.81436 11.0835 5.85348 11.0501 5.89069 11.0129C6.3544 10.5572 7.07782 10.4858 7.61899 10.8549L8.06747 10.3005C7.30454 9.6002 7.18569 8.43591 7.79519 7.59512L7.25136 7.15305C6.91532 7.44395 6.40945 7.46293 6.05135 7.17432C5.64917 6.84925 5.58615 6.2599 5.91122 5.85659C6.23629 5.45403 6.82564 5.39101 7.22895 5.71604C7.61024 6.0244 7.68236 6.56897 7.41199 6.96697L7.95011 7.40444C8.64847 6.64799 9.80331 6.5295 10.641 7.12873L11.0709 6.59864C10.6491 6.18088 10.5986 5.50646 10.9794 5.03404C11.3857 4.53129 12.1225 4.45227 12.6264 4.85784C13.1296 5.26494 13.2082 6.00167 12.8023 6.50521C12.4229 6.97462 11.7594 7.06953 11.2635 6.75207L10.8321 7.28294C11.5961 7.97939 11.72 9.13692 11.1214 9.97919L11.6508 10.4091C12.0397 10.008 12.6739 9.95791 13.1167 10.3157C13.3407 10.4964 13.4717 10.7486 13.5094 11.0129C13.5499 11.3022 13.4781 11.6068 13.2807 11.8521Z" fill="url(#paint0_linear_0_823)"/>
</g>
<defs>
<linearGradient id="paint0_linear_0_823" x1="0.609654" y1="2.26223e-07" x2="18.9455" y2="0.769817" gradientUnits="userSpaceOnUse">
<stop stop-color="#EF9F1D"/>
<stop offset="1" stop-color="#D78808"/>
</linearGradient>
<clipPath id="clip0_0_823">
<rect width="17.7014" height="14" fill="white" transform="translate(0.649292)"/>
</clipPath>
</defs>
</svg>
