<svg width="24" height="24" viewBox="0 0 24 24" fill="none" xmlns="http://www.w3.org/2000/svg">
<path fill-rule="evenodd" clip-rule="evenodd" d="M18.4973 10.2411V12.2511L16.7548 13.2566L15.7498 14.9976H15.4943L15.4948 14.9996V22.4996C15.4948 22.5016 15.4938 22.5031 15.4938 22.5051C15.4958 22.6321 15.4493 22.7601 15.3523 22.8571C15.2553 22.9541 15.1273 23.0006 14.9998 22.9986C14.9983 22.9986 14.9968 22.9996 14.9948 22.9996C14.8348 22.9996 14.6983 22.9196 14.6073 22.8021L11.9948 20.1896L9.38228 22.8021C9.29128 22.9196 9.15528 22.9996 8.99478 22.9996C8.99278 22.9996 8.99128 22.9986 8.98978 22.9986C8.86228 23.0006 8.73428 22.9541 8.63728 22.8571C8.54078 22.7601 8.49378 22.6321 8.49578 22.5051C8.49578 22.5031 8.49478 22.5016 8.49478 22.4996V14.9996L8.49528 14.9976H8.24178L7.23578 13.2566L5.49378 12.2511V10.2411L4.48828 8.50011L5.49378 6.75862V4.74712L7.23578 3.74062L8.24178 2.00112H10.2543L11.9943 0.995117L13.7363 2.00112H15.7488L16.7538 3.74062L18.4963 4.74712V6.75812L19.5013 8.50011L18.4973 10.2411ZM9.49478 14.9996V21.3091L11.5898 19.2141C11.6058 19.1906 11.6163 19.1636 11.6373 19.1421C11.7358 19.0441 11.8658 18.9986 11.9948 19.0016C12.1238 18.9986 12.2538 19.0441 12.3523 19.1421C12.3733 19.1636 12.3833 19.1906 12.3998 19.2141L14.4948 21.3091V14.9996L14.4953 14.9976H13.7368L11.9948 16.0041L10.2548 14.9976H9.49428L9.49478 14.9996ZM17.4948 7.02561V5.32412L16.0208 4.47262L15.1713 3.00112H13.4683L11.9958 2.15062L10.5243 3.00112H8.82128L7.97078 4.47212L6.49628 5.32362V7.02561L5.64578 8.50011L6.49628 9.97361V11.6736L7.97078 12.5246L8.82128 13.9971H10.5238L11.9953 14.8476L13.4678 13.9971H15.1703L16.0198 12.5246L17.4943 11.6736V9.97411L18.3443 8.50011L17.4948 7.02561Z" fill="#2858E9"/>
<path d="M14.4666 7.2546H13.1922L12.7986 6.0426C12.717 5.793 12.4866 5.625 12.225 5.625C11.9634 5.625 11.733 5.793 11.6514 6.0426L11.2578 7.2546H9.9786C9.717 7.2546 9.4866 7.4226 9.405 7.6722C9.3234 7.9218 9.4122 8.193 9.6234 8.3466L10.6554 9.0954L10.2618 10.3074C10.1802 10.557 10.269 10.8282 10.4802 10.9818C10.6914 11.1354 10.977 11.1354 11.1906 10.9818L12.2226 10.233L13.2546 10.9818C13.3602 11.0586 13.485 11.097 13.6098 11.097C13.7346 11.097 13.8594 11.0586 13.965 10.9818C14.1762 10.8282 14.265 10.557 14.1834 10.3074L13.7898 9.0954L14.8218 8.3466C15.033 8.193 15.1218 7.9218 15.0402 7.6722C14.9586 7.4226 14.7282 7.2546 14.4666 7.2546ZM13.1538 8.6658C13.0266 8.757 12.9738 8.9202 13.0242 9.069L13.389 10.1898L12.4362 9.4962C12.309 9.405 12.1386 9.405 12.0138 9.4962L11.061 10.1898L11.4258 9.069C11.4738 8.9202 11.421 8.7594 11.2962 8.6658L10.3434 7.9722H11.5218C11.6778 7.9722 11.817 7.8714 11.865 7.7226L12.2298 6.6018L12.5946 7.7226C12.6426 7.8714 12.7818 7.9722 12.9378 7.9722H14.1162L13.1538 8.6658Z" fill="#2858E9"/>
</svg>
