<svg width="41" height="40" viewBox="0 0 41 40" fill="none" xmlns="http://www.w3.org/2000/svg">
<path fill-rule="evenodd" clip-rule="evenodd" d="M34.2383 13.333V8.33301H30.9049V9.99967H27.5716V8.33301H14.2383V9.99967H10.9049V8.33301H7.57161V13.333H34.2383ZM34.2383 16.6663H7.57161V33.333H34.2383V16.6663ZM30.9049 4.99967H34.2383C36.0792 4.99967 37.5716 6.49206 37.5716 8.33301V33.333C37.5716 35.174 36.0792 36.6663 34.2383 36.6663H7.57161C5.73067 36.6663 4.23828 35.174 4.23828 33.333V8.33301C4.23828 6.49206 5.73067 4.99967 7.57161 4.99967H10.9049V3.33301H14.2383V4.99967H27.5716V3.33301H30.9049V4.99967ZM19.2383 25.976L26.3931 18.8212L28.7501 21.1782L19.2383 30.69L13.0598 24.5115L15.4168 22.1545L19.2383 25.976Z" fill="#5E5E6B" stroke="white" stroke-width="1.4"/>
</svg>
