<svg width="24" height="24" viewBox="0 0 24 24" fill="none" xmlns="http://www.w3.org/2000/svg">
<path d="M12 8.11523C11.01 8.11523 10.1953 8.92811 10.1953 9.91797C10.1953 10.3362 10.3474 10.7184 10.5898 11.0254C9.41392 11.5441 8.56599 12.6822 8.48828 14.0371L8.45703 14.5664H15.543L15.5117 14.0371C15.4339 12.6814 14.5856 11.5458 13.4102 11.0273C13.6531 10.7202 13.8047 10.3367 13.8047 9.91797C13.8047 8.92811 12.99 8.11523 12 8.11523ZM12 9.11719C12.4502 9.11719 12.8027 9.46913 12.8027 9.91797C12.8027 10.3661 12.4512 10.7216 12.0005 10.7221C11.5498 10.7227 11.1972 10.3668 11.1972 9.91797C11.1972 9.46913 11.5498 9.11719 12 9.11719ZM14.3809 13.5664H9.61719C9.91516 12.5121 10.8364 11.7335 11.9937 11.7283C13.151 11.7231 14.0805 12.5047 14.3809 13.5664Z" fill="#2858E9"/>
<path d="M12 1.43359C11.1044 1.43359 10.3672 2.17084 10.3672 3.06641C10.3672 3.78681 10.8472 4.39569 11.5 4.60938V5.79102C10.1792 5.90067 8.98126 6.43889 8.04102 7.26758L6.28711 5.51367C6.50218 5.15739 6.63281 4.74451 6.63281 4.30078C6.63281 2.99905 5.5654 1.93359 4.26367 1.93359C2.96195 1.93359 1.89648 2.99905 1.89648 4.30078C1.89648 5.60251 2.96195 6.66992 4.26367 6.66992C4.76121 6.66992 5.22291 6.51145 5.60547 6.24609L7.3457 7.98633C6.55799 8.95439 6.0722 10.172 6.01367 11.5H4.60938C4.39569 10.8472 3.78681 10.3672 3.06641 10.3672C2.17084 10.3672 1.43359 11.1044 1.43359 12C1.43359 12.8956 2.17084 13.6328 3.06641 13.6328C3.78652 13.6328 4.39546 13.1524 4.60938 12.5H6.05078C6.20475 13.7535 6.74657 14.8846 7.55274 15.7773L5.68359 17.6465C5.30102 17.3811 4.83936 17.2227 4.3418 17.2227C3.04007 17.2227 1.97461 18.2901 1.97461 19.5918C1.97461 20.8935 3.04007 21.959 4.3418 21.959C5.64353 21.959 6.71094 20.8935 6.71094 19.5918C6.71094 19.1481 6.5803 18.7352 6.36524 18.3789L8.2793 16.4648C9.18031 17.1799 10.2888 17.6397 11.5 17.7402V19.3906C10.8472 19.6043 10.3672 20.2132 10.3672 20.9336C10.3672 21.8292 11.1044 22.5664 12 22.5664C12.8956 22.5664 13.6328 21.8292 13.6328 20.9336C13.6328 20.2132 13.1528 19.6043 12.5 19.3906V17.7402C13.7048 17.6402 14.8066 17.1832 15.7051 16.4746L17.6094 18.3789C17.3943 18.7352 17.2637 19.1481 17.2637 19.5918C17.2637 20.8935 18.3311 21.959 19.6328 21.959C20.9345 21.959 22 20.8935 22 19.5918C22 18.2901 20.9345 17.2227 19.6328 17.2227C19.1347 17.2227 18.6738 17.3806 18.291 17.6465L16.4356 15.791C17.2484 14.8963 17.7945 13.7598 17.9492 12.5H19.3906C19.6045 13.1524 20.2135 13.6328 20.9336 13.6328C21.8292 13.6328 22.5664 12.8956 22.5664 12C22.5664 11.1044 21.8292 10.3672 20.9336 10.3672C20.2132 10.3672 19.6043 10.8472 19.3906 11.5H17.9863C17.9267 10.1459 17.4244 8.9048 16.6094 7.92774L18.291 6.24609C18.6738 6.51194 19.1348 6.66992 19.6328 6.66992C20.9345 6.66992 22 5.60251 22 4.30078C22 2.99905 20.9345 1.93359 19.6328 1.93359C18.3311 1.93359 17.2637 2.99905 17.2637 4.30078C17.2637 4.74451 17.3943 5.15739 17.6094 5.51367L15.9043 7.21875C14.9725 6.41733 13.795 5.89853 12.5 5.79102V4.60938C13.1528 4.39569 13.6328 3.78681 13.6328 3.06641C13.6328 2.17084 12.8956 1.43359 12 1.43359ZM12 2.43359C12.3551 2.43359 12.6328 2.71128 12.6328 3.06641C12.6328 3.42153 12.3551 3.69727 12 3.69727C11.6449 3.69727 11.3672 3.42153 11.3672 3.06641C11.3672 2.71128 11.6449 2.43359 12 2.43359ZM4.26367 2.93359C5.02496 2.93359 5.63281 3.53949 5.63281 4.30078C5.63281 5.06207 5.02496 5.66992 4.26367 5.66992C3.50239 5.66992 2.89648 5.06207 2.89648 4.30078C2.89648 3.53949 3.50239 2.93359 4.26367 2.93359ZM19.6328 2.93359C20.3941 2.93359 21 3.53949 21 4.30078C21 5.06207 20.3941 5.66992 19.6328 5.66992C18.8715 5.66992 18.2637 5.06207 18.2637 4.30078C18.2637 3.53949 18.8715 2.93359 19.6328 2.93359ZM12 6.76563C13.24 6.76563 14.3579 7.23083 15.2305 7.97461L15.791 8.53516C16.5348 9.40769 17 10.5256 17 11.7656C17 14.533 14.7673 16.7656 12 16.7656C9.23266 16.7656 7 14.533 7 11.7656C7 8.99828 9.23266 6.76563 12 6.76563ZM3.06641 11.3672C3.42153 11.3672 3.69727 11.6449 3.69727 12C3.69727 12.3551 3.42153 12.6328 3.06641 12.6328C2.71128 12.6328 2.43359 12.3551 2.43359 12C2.43359 11.6449 2.71128 11.3672 3.06641 11.3672ZM20.9336 11.3672C21.2887 11.3672 21.5664 11.6449 21.5664 12C21.5664 12.3551 21.2887 12.6328 20.9336 12.6328C20.5785 12.6328 20.3027 12.3551 20.3027 12C20.3027 11.6449 20.5785 11.3672 20.9336 11.3672ZM4.3418 18.2227C5.10308 18.2227 5.71094 18.8305 5.71094 19.5918C5.71094 20.3531 5.10308 20.959 4.3418 20.959C3.58051 20.959 2.97461 20.3531 2.97461 19.5918C2.97461 18.8305 3.58051 18.2227 4.3418 18.2227ZM19.6328 18.2227C20.3941 18.2227 21 18.8305 21 19.5918C21 20.3531 20.3941 20.959 19.6328 20.959C18.8715 20.959 18.2637 20.3531 18.2637 19.5918C18.2637 18.8305 18.8715 18.2227 19.6328 18.2227ZM12 20.3027C12.3551 20.3027 12.6328 20.5785 12.6328 20.9336C12.6328 21.2887 12.3551 21.5664 12 21.5664C11.6449 21.5664 11.3672 21.2887 11.3672 20.9336C11.3672 20.5785 11.6449 20.3027 12 20.3027Z" fill="#2858E9"/>
</svg>
