<svg width="24" height="24" viewBox="0 0 24 24" fill="none" xmlns="http://www.w3.org/2000/svg">
<path d="M12.0009 9.87829C15.3534 9.87829 18.1292 12.4944 18.3236 15.8387H18.3664C20.7118 15.8387 22.6128 13.9375 22.6128 11.5924C22.6128 9.52028 21.1138 7.7401 19.0672 7.40164C18.7899 7.35686 18.577 7.11733 18.5748 6.82706C18.5478 4.50121 16.6514 2.63317 14.3267 2.63317C13.6093 2.63317 12.9185 2.80693 12.2886 3.15219C12.1177 3.24801 11.9025 3.25623 11.718 3.15474C11.0859 2.80721 10.3959 2.63317 9.67504 2.63317C7.35997 2.63317 5.46755 4.48647 5.42758 6.8024C5.43778 7.0938 5.23 7.3543 4.93463 7.40221C2.88771 7.74095 1.38903 9.51971 1.38903 11.5924C1.38903 13.9375 3.29024 15.8387 5.63536 15.8387H5.67816C5.87262 12.4944 8.64833 9.87829 12.0009 9.87829ZM18.2839 17.0168C17.8837 20.173 15.1879 22.5456 12.0009 22.5456C8.81387 22.5456 6.1181 20.173 5.71785 17.0168H5.63536C2.63968 17.0168 0.210938 14.5881 0.210938 11.5924C0.210938 9.11974 1.88849 6.95688 4.27982 6.3412C4.55337 3.57257 6.88885 1.45508 9.67504 1.45508C10.475 1.45508 11.2789 1.63508 12.0009 1.97892C12.7243 1.63451 13.5257 1.45508 14.3267 1.45508C17.1129 1.45508 19.4484 3.57257 19.722 6.3412C22.1133 6.95688 23.7908 9.11974 23.7908 11.5924C23.7908 14.5881 21.3624 17.0168 18.3664 17.0168H18.2839ZM6.87864 15.623H8.4791C8.54486 14.3117 8.84392 12.8672 9.48682 11.7101C8.04313 12.5179 7.0663 13.973 6.87864 15.623ZM9.65832 15.623H11.4118V11.2369C10.1935 11.9864 9.72919 14.3262 9.65832 15.623ZM12.5899 15.623H14.3435C14.2729 14.3262 13.8086 11.9862 12.5899 11.2369V15.623ZM15.5227 15.623H17.1231C16.9355 13.9727 15.9589 12.5182 14.5152 11.7101C15.1581 12.8694 15.4569 14.3094 15.5227 15.623ZM17.1231 16.8011H15.5227C15.4566 18.115 15.1581 19.5544 14.515 20.7141C15.9587 19.9062 16.9355 18.4512 17.1231 16.8011ZM14.3435 16.8011H12.5899V21.1872C13.8086 20.4377 14.2729 18.098 14.3435 16.8011ZM11.4118 16.8011H9.65832C9.72919 18.098 10.1932 20.4377 11.4118 21.1872V16.8011ZM8.4791 16.8011H6.87864C7.0663 18.4512 8.04313 19.9062 9.48682 20.7141C8.84364 19.5544 8.54515 18.115 8.4791 16.8011Z" fill="#2858E9"/>
</svg>
