<svg width="40" height="40" viewBox="0 0 40 40" fill="none" xmlns="http://www.w3.org/2000/svg">
<g clip-path="url(#clip0_0_701)">
<path d="M38.3346 21.6667C38.3536 17.0798 36.6525 12.6525 33.567 9.25843C30.4815 5.8644 26.2359 3.75028 21.668 3.33333V1.66667C21.668 1.22464 21.4924 0.800716 21.1798 0.488155C20.8673 0.175595 20.4433 0 20.0013 0C19.5593 0 19.1354 0.175595 18.8228 0.488155C18.5102 0.800716 18.3346 1.22464 18.3346 1.66667V3.33333C13.9261 3.73068 9.8102 5.70958 6.74682 8.90469C3.68344 12.0998 1.87947 16.2953 1.66797 20.7167C1.66797 21.85 1.66797 22.95 2.9013 23.2833C5.28464 23.9 4.93464 19.7833 8.8513 19.7667C9.71379 19.825 10.5464 20.1059 11.2679 20.5821C11.9894 21.0582 12.5752 21.7133 12.968 22.4833C13.1127 22.7408 13.3232 22.9551 13.578 23.1045C13.8328 23.2539 14.1226 23.3328 14.418 23.3333C16.2013 23.3333 15.7346 21.3167 18.318 20.1667V35C18.318 36.3261 18.8448 37.5979 19.7824 38.5355C20.7201 39.4732 21.9919 40 23.318 40C24.6441 40 25.9158 39.4732 26.8535 38.5355C27.7912 37.5979 28.318 36.3261 28.318 35C28.318 34.558 28.1424 34.134 27.8298 33.8215C27.5173 33.5089 27.0933 33.3333 26.6513 33.3333C26.2093 33.3333 25.7854 33.5089 25.4728 33.8215C25.1602 34.134 24.9846 34.558 24.9846 35C24.9846 35.442 24.809 35.866 24.4965 36.1785C24.1839 36.4911 23.76 36.6667 23.318 36.6667C22.8759 36.6667 22.452 36.4911 22.1395 36.1785C21.8269 35.866 21.6513 35.442 21.6513 35V20.1833C24.1513 21.3167 23.768 23.3333 25.518 23.3333C25.8133 23.3328 26.1032 23.2539 26.358 23.1045C26.6127 22.9551 26.8233 22.7408 26.968 22.4833C27.3148 21.6793 27.8894 20.9945 28.621 20.5133C29.3526 20.0322 30.209 19.7758 31.0846 19.7758C31.9603 19.7758 32.8167 20.0322 33.5483 20.5133C34.2798 20.9945 34.8545 21.6793 35.2013 22.4833C35.3785 22.8118 35.6608 23.0713 36.0029 23.2202C36.3451 23.3692 36.7274 23.399 37.0885 23.3049C37.4496 23.2107 37.7687 22.9981 37.9947 22.7011C38.2206 22.4041 38.3403 22.0398 38.3346 21.6667ZM25.5513 18.8333C24.847 18.0622 23.9897 17.4463 23.0341 17.025C22.0786 16.6036 21.0457 16.386 20.0013 16.386C18.9569 16.386 17.9241 16.6036 16.9685 17.025C16.0129 17.4463 15.1556 18.0622 14.4513 18.8333C13.3639 17.6546 11.9266 16.8564 10.3513 16.5564C8.77593 16.2563 7.14586 16.4702 5.7013 17.1667C6.65504 14.116 8.55831 11.4497 11.1336 9.55661C13.709 7.66349 16.8217 6.6425 20.018 6.6425C23.2143 6.6425 26.327 7.66349 28.9023 9.55661C31.4776 11.4497 33.3809 14.116 34.3346 17.1667C32.8775 16.4723 31.2358 16.2643 29.6514 16.5733C28.0671 16.8824 26.624 17.6922 25.5346 18.8833L25.5513 18.8333Z" fill="#5E5E6B" stroke="white" stroke-width="1.4"/>
</g>
<defs>
<clipPath id="clip0_0_701">
<rect width="40" height="40" fill="white"/>
</clipPath>
</defs>
</svg>
