<svg width="40" height="40" viewBox="0 0 40 40" fill="none" xmlns="http://www.w3.org/2000/svg">
<path d="M37.5 33.333C37.5 33.7938 37.1275 34.1663 36.6667 34.1663H3.33333C2.87333 34.1663 2.5 33.7938 2.5 33.333V6.66634C2.5 6.20634 2.87333 5.83301 3.33333 5.83301C3.79333 5.83301 4.16667 6.20634 4.16667 6.66634V32.4997H36.6667C37.1275 32.4997 37.5 32.8722 37.5 33.333ZM5.83333 23.333V9.99967C5.83333 9.53967 6.20667 9.16634 6.66667 9.16634H8.33333V6.66634C8.33333 6.20634 8.70667 5.83301 9.16667 5.83301C9.62667 5.83301 10 6.20634 10 6.66634V9.16634H11.6667C12.1267 9.16634 12.5 9.53967 12.5 9.99967V23.333C12.5 23.7938 12.1267 24.1663 11.6667 24.1663H10V26.6663C10 27.1272 9.62667 27.4997 9.16667 27.4997C8.70667 27.4997 8.33333 27.1272 8.33333 26.6663V24.1663H6.66667C6.20667 24.1663 5.83333 23.7938 5.83333 23.333ZM7.5 22.4997H10.8333V10.833H7.5V22.4997ZM14.1667 26.6663V19.1663C14.1667 18.7063 14.54 18.333 15 18.333H16.6667V15.833C16.6667 15.373 17.04 14.9997 17.5 14.9997C17.96 14.9997 18.3333 15.373 18.3333 15.833V18.333H20C20.46 18.333 20.8333 18.7063 20.8333 19.1663V26.6663C20.8333 27.1272 20.46 27.4997 20 27.4997H18.3333V29.9997C18.3333 30.4605 17.96 30.833 17.5 30.833C17.04 30.833 16.6667 30.4605 16.6667 29.9997V27.4997H15C14.54 27.4997 14.1667 27.1272 14.1667 26.6663ZM15.8333 25.833H19.1667V19.9997H15.8333V25.833ZM22.5 24.9997V15.833C22.5 15.373 22.8725 14.9997 23.3333 14.9997H25V12.4997C25 12.0397 25.3725 11.6663 25.8333 11.6663C26.2942 11.6663 26.6667 12.0397 26.6667 12.4997V14.9997H28.3333C28.7942 14.9997 29.1667 15.373 29.1667 15.833V24.9997C29.1667 25.4605 28.7942 25.833 28.3333 25.833H26.6667V28.333C26.6667 28.7938 26.2942 29.1663 25.8333 29.1663C25.3725 29.1663 25 28.7938 25 28.333V25.833H23.3333C22.8725 25.833 22.5 25.4605 22.5 24.9997ZM24.1667 24.1663H27.5V16.6663H24.1667V24.1663ZM37.5 9.99967V21.6663C37.5 22.1272 37.1275 22.4997 36.6667 22.4997H35V24.9997C35 25.4605 34.6275 25.833 34.1667 25.833C33.7058 25.833 33.3333 25.4605 33.3333 24.9997V22.4997H31.6667C31.2058 22.4997 30.8333 22.1272 30.8333 21.6663V9.99967C30.8333 9.53967 31.2058 9.16634 31.6667 9.16634H33.3333V6.66634C33.3333 6.20634 33.7058 5.83301 34.1667 5.83301C34.6275 5.83301 35 6.20634 35 6.66634V9.16634H36.6667C37.1275 9.16634 37.5 9.53967 37.5 9.99967ZM35.8333 10.833H32.5V20.833H35.8333V10.833Z" fill="#5E5E6B"/>
</svg>
