<svg width="40" height="40" viewBox="0 0 40 40" fill="none" xmlns="http://www.w3.org/2000/svg">
<path d="M7.8125 8.4375C5.57187 8.4375 3.75 6.61562 3.75 4.375C3.75 2.13437 5.57187 0.3125 7.8125 0.3125C10.0531 0.3125 11.875 2.13437 11.875 4.375C11.875 6.61562 10.0531 8.4375 7.8125 8.4375ZM7.8125 2.1875C6.60625 2.1875 5.625 3.16875 5.625 4.375C5.625 5.58125 6.60625 6.5625 7.8125 6.5625C9.01875 6.5625 10 5.58125 10 4.375C10 3.16875 9.01875 2.1875 7.8125 2.1875Z" fill="#5E5E6B"/>
<path d="M33.125 24.0625C31.4031 24.0625 30 22.6594 30 20.9375C30 19.2156 31.4031 17.8125 33.125 17.8125C34.8469 17.8125 36.25 19.2156 36.25 20.9375C36.25 22.6594 34.8469 24.0625 33.125 24.0625ZM33.125 19.6875C32.4344 19.6875 31.875 20.2469 31.875 20.9375C31.875 21.6281 32.4344 22.1875 33.125 22.1875C33.8156 22.1875 34.375 21.6281 34.375 20.9375C34.375 20.2469 33.8156 19.6875 33.125 19.6875Z" fill="#5E5E6B"/>
<path d="M20 8.4375C17.7594 8.4375 15.9375 6.61562 15.9375 4.375C15.9375 2.13437 17.7594 0.3125 20 0.3125C22.2406 0.3125 24.0625 2.13437 24.0625 4.375C24.0625 6.61562 22.2406 8.4375 20 8.4375ZM20 2.1875C18.7938 2.1875 17.8125 3.16875 17.8125 4.375C17.8125 5.58125 18.7938 6.5625 20 6.5625C21.2063 6.5625 22.1875 5.58125 22.1875 4.375C22.1875 3.16875 21.2063 2.1875 20 2.1875Z" fill="#5E5E6B"/>
<path d="M39.3576 33.5812L38.8076 30.5594C38.3138 27.85 36.1451 25.8031 33.4107 25.4719C30.0638 25.0656 27.4826 22.4406 27.1357 19.0906L26.7951 15.8313C26.4294 12.3281 23.5013 9.6875 19.9794 9.6875C18.5232 9.6875 17.1326 10.1375 15.9576 10.9906C15.5388 11.2937 15.4451 11.8813 15.7482 12.3C16.0513 12.7188 16.6388 12.8125 17.0576 12.5094C17.9107 11.8906 18.9201 11.5625 19.9794 11.5625C22.5388 11.5625 24.6669 13.4812 24.9326 16.025L25.2732 19.2844C25.5544 21.9781 26.9794 24.2937 29.0638 25.7562V30.625C29.0638 31.7656 29.5388 32.8 30.3013 33.5375L30.6294 38.8094C30.6607 39.3063 31.0732 39.6875 31.5638 39.6875C31.5826 39.6875 31.6044 39.6875 31.6232 39.6844C32.1388 39.6531 32.5326 39.2062 32.5013 38.6906L32.2451 34.5875C32.5294 34.65 32.8232 34.6875 33.1294 34.6875H34.0076L33.7576 38.6906C33.7263 39.2062 34.1169 39.6531 34.6357 39.6844C34.6544 39.6844 34.6763 39.6875 34.6951 39.6875C35.1857 39.6875 35.5982 39.3063 35.6294 38.8094L35.9419 33.8094C35.9576 33.55 35.8669 33.2969 35.6888 33.1094C35.5107 32.9219 35.2576 32.8125 34.9982 32.8125H33.1232C31.9169 32.8125 30.9357 31.8312 30.9357 30.625V26.7688C31.6451 27.0469 32.3982 27.2406 33.1857 27.3344C35.1013 27.5656 36.6201 28.9969 36.9638 30.8937L37.5138 33.9156C37.5951 34.3687 37.9919 34.6844 38.4357 34.6844C38.4919 34.6844 38.5482 34.6781 38.6044 34.6688C39.1138 34.5813 39.4513 34.0906 39.3576 33.5812Z" fill="#5E5E6B"/>
<path d="M24.0625 23.4375C23.5437 23.4375 23.125 23.8563 23.125 24.375V29.6875H16.875C16.875 29.1687 16.4562 28.75 15.9375 28.75C15.4188 28.75 15 29.1687 15 29.6875C15 30.7219 15.8406 31.5625 16.875 31.5625H16.9438L17.5031 38.8219C17.5406 39.3125 17.95 39.6875 18.4375 39.6875C18.4625 39.6875 18.4875 39.6875 18.5094 39.6844C19.025 39.6437 19.4125 39.1937 19.3719 38.6781L18.825 31.5625H21.175L20.6281 38.6781C20.5875 39.1937 20.975 39.6437 21.4906 39.6844C21.5156 39.6875 21.5406 39.6875 21.5625 39.6875C22.0469 39.6875 22.4594 39.3125 22.4969 38.8219L23.0562 31.5625H23.125C24.1594 31.5625 25 30.7219 25 29.6875V24.375C25 23.8563 24.5813 23.4375 24.0625 23.4375Z" fill="#5E5E6B"/>
<path d="M14.9219 15.8313C14.5562 12.3281 11.6281 9.6875 8.10625 9.6875C4.325 9.6875 1.25 12.7625 1.25 16.5437V25.625C1.25 26.8469 2.03438 27.8906 3.125 28.2781V36.875C3.125 38.425 4.3875 39.6875 5.9375 39.6875C6.65938 39.6875 7.31563 39.4125 7.8125 38.9656C8.30937 39.4125 8.96562 39.6875 9.6875 39.6875C11.2375 39.6875 12.5 38.425 12.5 36.875V28.75C12.5 28.2313 12.0813 27.8125 11.5625 27.8125C11.0437 27.8125 10.625 28.2313 10.625 28.75V36.875C10.625 37.3906 10.2031 37.8125 9.6875 37.8125C9.17188 37.8125 8.75 37.3906 8.75 36.875V25.625C8.75 25.1062 8.33125 24.6875 7.8125 24.6875C7.29375 24.6875 6.875 25.1062 6.875 25.625V36.875C6.875 37.3906 6.45312 37.8125 5.9375 37.8125C5.42188 37.8125 5 37.3906 5 36.875V27.5C5 26.9813 4.58125 26.5625 4.0625 26.5625C3.54688 26.5625 3.125 26.1406 3.125 25.625V16.5437C3.125 13.7969 5.35938 11.5625 8.10625 11.5625C10.65 11.5625 12.7688 13.4594 13.0531 15.9812V25.625C13.0531 26.1437 13.4719 26.5625 13.9906 26.5625C14.5094 26.5625 14.9281 26.1437 14.9281 25.625V15.9281C14.9281 15.8969 14.925 15.8656 14.9219 15.8313Z" fill="#5E5E6B"/>
</svg>
