<svg width="24" height="24" viewBox="0 0 24 24" fill="none" xmlns="http://www.w3.org/2000/svg">
<path d="M9.24305 8.07226C9.4118 8.07226 9.57117 8.05351 9.73055 8.00664V10.2098C9.73055 10.3316 9.77742 10.4441 9.8618 10.5379C9.94617 10.6223 10.068 10.6691 10.1805 10.6691H12.3649C12.3274 10.8191 12.3087 10.9785 12.3087 11.1379C12.3087 12.1691 13.143 13.0035 14.1649 13.0035C15.1962 13.0035 16.0305 12.1691 16.0305 11.1379C16.0305 10.9785 16.0118 10.8191 15.9743 10.6691H18.1399C18.393 10.6691 18.5993 10.4629 18.5993 10.2098V8.00664C18.7587 8.05351 18.918 8.07226 19.0868 8.07226C19.5837 8.07226 20.0524 7.87539 20.3993 7.51914C20.7555 7.16289 20.943 6.69414 20.943 6.20664C20.943 5.18476 20.1087 4.35039 19.0868 4.35039C18.918 4.35039 18.7587 4.36914 18.5993 4.41601V2.25039C18.5993 2.12852 18.5524 2.01602 18.468 1.92227C18.3837 1.83789 18.2618 1.79102 18.1493 1.79102L15.2055 1.80039C15.0274 1.80039 14.8587 1.91289 14.7837 2.07227C14.7087 2.24102 14.7462 2.43789 14.868 2.56914C15.0274 2.73789 15.1212 2.97227 15.1212 3.20664C15.1212 3.73164 14.6993 4.15351 14.1743 4.15351C13.6493 4.15351 13.2274 3.73164 13.2274 3.20664C13.2274 2.97227 13.3212 2.73789 13.4805 2.56914C13.6118 2.43789 13.6399 2.24102 13.5743 2.07227C13.4993 1.90352 13.3399 1.79102 13.1524 1.79102H10.1899C10.068 1.79102 9.95555 1.83789 9.8618 1.92227C9.77742 2.00664 9.73055 2.12852 9.73055 2.25039V4.40664C9.57117 4.35977 9.4118 4.34101 9.24305 4.34101C8.22117 4.34101 7.3868 5.17539 7.3868 6.19726C7.37742 7.23789 8.2118 8.07226 9.24305 8.07226ZM9.24305 5.26914C9.54305 5.26914 9.75867 5.40039 9.88992 5.52226C10.0212 5.64414 10.218 5.67226 10.3868 5.59726C10.5555 5.52226 10.6587 5.36289 10.6587 5.17539V2.70977H12.3743C12.3274 2.86914 12.3087 3.03789 12.3087 3.20664C12.3087 4.23789 13.143 5.07226 14.1743 5.07226C15.1962 5.07226 16.0305 4.23789 16.0305 3.20664C16.0305 3.03789 16.0118 2.86914 15.9649 2.70977H17.6805V5.17539C17.6805 5.35351 17.7837 5.52226 17.9524 5.59726C18.1118 5.67226 18.3087 5.64414 18.4399 5.52226C18.5618 5.40977 18.7774 5.26914 19.0868 5.26914C19.6118 5.26914 20.0337 5.69102 20.0337 6.21601C20.0337 6.46914 19.9399 6.70351 19.7618 6.88164C19.5837 7.05976 19.3399 7.16289 19.0868 7.16289C18.8524 7.16289 18.6274 7.07851 18.4587 6.91914C18.3274 6.79727 18.1305 6.75976 17.9618 6.83476C17.793 6.90976 17.6899 7.06914 17.6899 7.25664V9.75039H15.2337C15.0555 9.75039 14.8868 9.85351 14.8212 10.0223C14.7462 10.1816 14.7743 10.3785 14.8962 10.5098C15.0462 10.6879 15.1305 10.9035 15.1305 11.1379C15.1305 11.6629 14.7087 12.0848 14.1837 12.0848C13.6587 12.0848 13.2368 11.6629 13.2368 11.1379C13.2368 10.9035 13.3212 10.6785 13.4712 10.5098C13.593 10.3785 13.6212 10.1816 13.5462 10.0223C13.4712 9.86289 13.3118 9.75039 13.1337 9.75039H10.6587V7.25664C10.6587 7.07851 10.5555 6.90976 10.3868 6.83476C10.218 6.75976 10.0305 6.78789 9.8993 6.90976C9.77742 7.02226 9.5618 7.16289 9.25242 7.16289C8.72742 7.16289 8.30555 6.74101 8.30555 6.21601C8.29617 5.69102 8.71805 5.26914 9.24305 5.26914Z" fill="#2858E9"/>
<path d="M23.1375 14.2781C22.6969 13.7437 21.9844 13.5562 21.3469 13.8281L15.525 16.275C15.2906 16.3687 15.1781 16.6406 15.2813 16.875C15.375 17.1094 15.6469 17.2219 15.8813 17.1187L21.7031 14.6719C21.9563 14.5687 22.2469 14.6344 22.425 14.8594C22.5375 15 22.5844 15.1687 22.5563 15.3375C22.5281 15.5156 22.4344 15.6656 22.2844 15.7594C19.7531 17.4187 13.9781 20.6812 13.6969 20.8406C13.6875 20.85 13.6781 20.85 13.6594 20.8594C12.9563 21.2812 12.1688 21.3937 11.1656 21.2156C11.1 21.2062 9.7875 21.0469 6.65625 20.6625L4.93125 20.4562V14.0625C5.20313 14.0437 5.44688 14.0344 5.55 14.0344H5.59688C7.79063 13.8937 9.89063 14.3156 12.1125 14.7656C12.3938 14.8219 12.6844 14.8781 12.9656 14.9344C13.275 14.9906 13.5 15.2719 13.5 15.5812C13.5 15.6 13.5 15.6187 13.4906 15.6656C13.4719 15.8531 13.3781 15.975 13.3031 16.05C13.1813 16.1719 13.0125 16.2375 12.8344 16.2375H8.40938C8.15625 16.2375 7.95 16.4437 7.95 16.6969C7.95 16.95 8.15625 17.1562 8.40938 17.1562H12.8531C13.2656 17.1562 13.6781 16.9875 13.9688 16.6969C14.2219 16.4437 14.3719 16.1156 14.4094 15.7875C14.4188 15.7219 14.4281 15.6469 14.4281 15.5812C14.4281 14.8312 13.8938 14.175 13.1531 14.0344C12.8719 13.9781 12.5813 13.9219 12.3 13.8656C10.1156 13.425 7.86563 12.9656 5.55 13.1156H5.5125C5.40938 13.1156 5.175 13.1344 4.9125 13.1437C4.86563 12.9469 4.6875 12.7969 4.47188 12.7969H0.975C0.721875 12.7969 0.515625 13.0031 0.515625 13.2562V21.1875C0.515625 21.4406 0.721875 21.6469 0.975 21.6469H4.48125C4.66875 21.6469 4.82813 21.5344 4.90313 21.375L6.55313 21.5812C8.39063 21.8062 10.9125 22.1156 11.025 22.1344C11.3719 22.2 11.7094 22.2281 12.0281 22.2281C12.8063 22.2281 13.5 22.0406 14.1281 21.675C14.1375 21.675 14.1375 21.6656 14.1469 21.6656C14.2031 21.6281 20.1844 18.2531 22.7906 16.5469C23.1563 16.3125 23.4 15.9281 23.4656 15.5062C23.5313 15.0562 23.4094 14.6156 23.1375 14.2781ZM4.02188 20.7281H1.43438V13.7156H4.03125V20.7281H4.02188Z" fill="#2858E9"/>
</svg>
