<svg width="24" height="24" viewBox="0 0 24 24" fill="none" xmlns="http://www.w3.org/2000/svg">
<g clip-path="url(#clip0_0_629)">
<path d="M16.875 3.75H19.5C19.6989 3.75 19.8897 3.82902 20.0303 3.96967C20.171 4.11032 20.25 4.30109 20.25 4.5V7.125" stroke="#2858E9" stroke-width="1.5" stroke-linecap="round" stroke-linejoin="round"/>
<path d="M16.875 20.25H19.5C19.6989 20.25 19.8897 20.171 20.0303 20.0303C20.171 19.8897 20.25 19.6989 20.25 19.5V16.875" stroke="#2858E9" stroke-width="1.5" stroke-linecap="round" stroke-linejoin="round"/>
<path d="M7.125 20.25H4.5C4.30109 20.25 4.11032 20.171 3.96967 20.0303C3.82902 19.8897 3.75 19.6989 3.75 19.5V16.875" stroke="#2858E9" stroke-width="1.5" stroke-linecap="round" stroke-linejoin="round"/>
<path d="M7.125 3.75H4.5C4.30109 3.75 4.11032 3.82902 3.96967 3.96967C3.82902 4.11032 3.75 4.30109 3.75 4.5V7.125" stroke="#2858E9" stroke-width="1.5" stroke-linecap="round" stroke-linejoin="round"/>
<path d="M12 13.5C13.6569 13.5 15 12.1569 15 10.5C15 8.84315 13.6569 7.5 12 7.5C10.3431 7.5 9 8.84315 9 10.5C9 12.1569 10.3431 13.5 12 13.5Z" stroke="#2858E9" stroke-width="1.5" stroke-linecap="round" stroke-linejoin="round"/>
<path d="M7.02344 16.5002C7.50287 15.5959 8.2196 14.8392 9.09666 14.3115C9.97372 13.7837 10.978 13.5049 12.0016 13.5049C13.0252 13.5049 14.0294 13.7837 14.9065 14.3115C15.7835 14.8392 16.5003 15.5959 16.9797 16.5002" stroke="#2858E9" stroke-width="1.5" stroke-linecap="round" stroke-linejoin="round"/>
</g>
<defs>
<clipPath id="clip0_0_629">
<rect width="24" height="24" fill="white"/>
</clipPath>
</defs>
</svg>
