<svg width="62" height="62" viewBox="0 0 62 62" fill="none" xmlns="http://www.w3.org/2000/svg">
<g filter="url(#filter0_ddi_0_782)">
<rect x="3" y="2" width="56" height="56" rx="12" fill="url(#paint0_linear_0_782)"/>
<g clip-path="url(#clip0_0_782)">
<path opacity="0.5" d="M31 50C42.0457 50 51 41.0457 51 30C51 18.9543 42.0457 10 31 10C19.9543 10 11 18.9543 11 30C11 41.0457 19.9543 50 31 50Z" fill="white"/>
<mask id="mask0_0_782" style="mask-type:luminance" maskUnits="userSpaceOnUse" x="11" y="10" width="40" height="40">
<path d="M31 50C42.0457 50 51 41.0457 51 30C51 18.9543 42.0457 10 31 10C19.9543 10 11 18.9543 11 30C11 41.0457 19.9543 50 31 50Z" fill="#716FFF"/>
</mask>
<g mask="url(#mask0_0_782)">
<path d="M56.5562 44.744C58.0377 45.5986 59.7751 44.5364 59.4689 42.8537C56.9118 28.8044 43.2129 -3.96992 33.1533 -8.39203C32.0298 -8.88592 31 -7.89403 31 -6.6667V29.3582C31 29.7553 31.2119 30.1222 31.5559 30.3206L56.5562 44.744Z" fill="white" stroke="#7472FF" stroke-width="2.22222"/>
</g>
</g>
</g>
<defs>
<filter id="filter0_ddi_0_782" x="0" y="0" width="62" height="62" filterUnits="userSpaceOnUse" color-interpolation-filters="sRGB">
<feFlood flood-opacity="0" result="BackgroundImageFix"/>
<feColorMatrix in="SourceAlpha" type="matrix" values="0 0 0 0 0 0 0 0 0 0 0 0 0 0 0 0 0 0 127 0" result="hardAlpha"/>
<feMorphology radius="1" operator="dilate" in="SourceAlpha" result="effect1_dropShadow_0_782"/>
<feOffset/>
<feComposite in2="hardAlpha" operator="out"/>
<feColorMatrix type="matrix" values="0 0 0 0 0.262745 0 0 0 0 0.219608 0 0 0 0 0.792157 0 0 0 0.6 0"/>
<feBlend mode="normal" in2="BackgroundImageFix" result="effect1_dropShadow_0_782"/>
<feColorMatrix in="SourceAlpha" type="matrix" values="0 0 0 0 0 0 0 0 0 0 0 0 0 0 0 0 0 0 127 0" result="hardAlpha"/>
<feOffset dy="1"/>
<feGaussianBlur stdDeviation="1.5"/>
<feComposite in2="hardAlpha" operator="out"/>
<feColorMatrix type="matrix" values="0 0 0 0 0.192157 0 0 0 0 0.180392 0 0 0 0 0.505882 0 0 0 0.4 0"/>
<feBlend mode="normal" in2="effect1_dropShadow_0_782" result="effect2_dropShadow_0_782"/>
<feBlend mode="normal" in="SourceGraphic" in2="effect2_dropShadow_0_782" result="shape"/>
<feColorMatrix in="SourceAlpha" type="matrix" values="0 0 0 0 0 0 0 0 0 0 0 0 0 0 0 0 0 0 127 0" result="hardAlpha"/>
<feOffset dy="1"/>
<feGaussianBlur stdDeviation="0.5"/>
<feComposite in2="hardAlpha" operator="arithmetic" k2="-1" k3="1"/>
<feColorMatrix type="matrix" values="0 0 0 0 0.505882 0 0 0 0 0.54902 0 0 0 0 0.972549 0 0 0 1 0"/>
<feBlend mode="normal" in2="shape" result="effect3_innerShadow_0_782"/>
</filter>
<linearGradient id="paint0_linear_0_782" x1="31" y1="2" x2="31" y2="58" gradientUnits="userSpaceOnUse">
<stop offset="0.25" stop-color="#818CF8"/>
<stop offset="1" stop-color="#6366F1"/>
</linearGradient>
<clipPath id="clip0_0_782">
<rect width="40" height="40" fill="white" transform="translate(11 10)"/>
</clipPath>
</defs>
</svg>
