<svg width="40" height="40" viewBox="0 0 40 40" fill="none" xmlns="http://www.w3.org/2000/svg">
<g clip-path="url(#clip0_0_748)">
<path d="M2.5 20.833C2.5 26.6617 4.5481 29.769 7.86171 33.3642C8.33264 33.8751 9.00759 34.1663 9.70246 34.1663H30.2975C30.9924 34.1663 31.6674 33.8751 32.1383 33.3642C35.4519 29.769 37.5 26.6617 37.5 20.833" stroke="#5E5E6B" stroke-width="2" stroke-miterlimit="10" stroke-linecap="round" stroke-linejoin="round"/>
<path d="M29.0156 20.833C29.1037 20.2805 29.1654 19.7042 29.1654 19.0738C29.1654 13.0906 25.0613 5.83301 19.9987 5.83301C14.9361 5.83301 10.832 13.0906 10.832 19.0738C10.832 19.7042 10.8937 20.2805 10.9818 20.833" stroke="#5E5E6B" stroke-width="2" stroke-miterlimit="10" stroke-linecap="round" stroke-linejoin="round"/>
<path d="M13.6543 10.0164C12.2123 9.31916 10.714 9.03962 9.2818 9.39098C5.32764 10.3611 3.10219 15.7409 3.12121 20.8329" stroke="#5E5E6B" stroke-width="2" stroke-miterlimit="10" stroke-linecap="round" stroke-linejoin="round"/>
<path d="M37.3641 20.7159C38.0464 15.3033 36.0605 8.95783 31.8179 7.71689C29.8342 7.13665 27.6675 7.77457 25.6797 9.1089" stroke="#5E5E6B" stroke-width="2" stroke-miterlimit="10" stroke-linecap="round" stroke-linejoin="round"/>
<path d="M0.832031 20.833H39.1654" stroke="#5E5E6B" stroke-width="2" stroke-miterlimit="10" stroke-linecap="round" stroke-linejoin="round"/>
</g>
<defs>
<clipPath id="clip0_0_748">
<rect width="40" height="40" fill="white"/>
</clipPath>
</defs>
</svg>
