<svg width="14" height="14" viewBox="0 0 14 14" fill="none" xmlns="http://www.w3.org/2000/svg">
<g clip-path="url(#clip0_0_294)">
<path d="M0.769553 3.89632C0.769007 3.85303 0.778848 3.81023 0.798251 3.77153C0.817654 3.73283 0.846053 3.69934 0.881068 3.67387C0.916083 3.64841 0.956693 3.63171 0.999492 3.62517C1.04229 3.61864 1.08603 3.62246 1.12705 3.63632L6.00205 5.26132C6.05541 5.27934 6.10182 5.31354 6.13483 5.35917C6.16784 5.4048 6.1858 5.45959 6.18622 5.5159V12.8338C6.1859 12.8767 6.17543 12.9188 6.15566 12.9568C6.13589 12.9948 6.10739 13.0276 6.0725 13.0524C6.0376 13.0773 5.99731 13.0935 5.95494 13.0997C5.91256 13.106 5.8693 13.1021 5.82872 13.0884L0.986219 11.4038C0.932863 11.3858 0.886451 11.3516 0.853443 11.306C0.820434 11.2603 0.802471 11.2056 0.802053 11.1492L0.769553 3.89632ZM7.81122 12.8609C7.81124 12.9044 7.82173 12.9472 7.84179 12.9858C7.86186 13.0244 7.89092 13.0575 7.92652 13.0825C7.96211 13.1075 8.0032 13.1235 8.0463 13.1293C8.0894 13.135 8.13325 13.1303 8.17414 13.1155L13.0491 11.4092C13.1015 11.3903 13.1467 11.3557 13.1787 11.3102C13.2107 11.2646 13.2279 11.2103 13.2279 11.1547V3.93965C13.2281 3.89699 13.2183 3.85487 13.1992 3.81672C13.1801 3.77858 13.1523 3.74549 13.1179 3.72014C13.0836 3.6948 13.0438 3.67792 13.0017 3.67088C12.9596 3.66385 12.9165 3.66685 12.8758 3.67965L8.0008 5.22882C7.94556 5.24619 7.89733 5.28082 7.86321 5.32761C7.82909 5.37441 7.81087 5.43091 7.81122 5.48882V12.8609Z" fill="url(#paint0_linear_0_294)"/>
<path d="M6.91922 4.0317C6.96705 4.04511 7.01764 4.04511 7.06547 4.0317L11.7671 2.74253C11.839 2.74253 11.9079 2.714 11.9586 2.66321C12.0094 2.61242 12.038 2.54353 12.038 2.4717C12.038 2.39987 12.0094 2.33098 11.9586 2.28019C11.9079 2.2294 11.839 2.20087 11.7671 2.20087L7.06547 0.879199C7.01764 0.865788 6.96705 0.865788 6.91922 0.879199L2.28255 2.12503C2.21072 2.12503 2.14184 2.15357 2.09104 2.20436C2.04025 2.25515 2.01172 2.32404 2.01172 2.39587C2.01172 2.4677 2.04025 2.53658 2.09104 2.58737C2.14184 2.63817 2.21072 2.6667 2.28255 2.6667L6.91922 4.0317Z" fill="url(#paint1_linear_0_294)"/>
</g>
<defs>
<linearGradient id="paint0_linear_0_294" x1="0.741634" y1="3.62207" x2="13.6448" y2="4.18338" gradientUnits="userSpaceOnUse">
<stop stop-color="#EF9F1D"/>
<stop offset="1" stop-color="#D78808"/>
</linearGradient>
<linearGradient id="paint1_linear_0_294" x1="1.98927" y1="0.869141" x2="12.2798" y2="1.949" gradientUnits="userSpaceOnUse">
<stop stop-color="#EF9F1D"/>
<stop offset="1" stop-color="#D78808"/>
</linearGradient>
<clipPath id="clip0_0_294">
<rect width="13" height="13" fill="white" transform="translate(0.5 0.5)"/>
</clipPath>
</defs>
</svg>
