<svg width="135" height="24" viewBox="0 0 135 24" fill="none" xmlns="http://www.w3.org/2000/svg">
<g clip-path="url(#clip0_0_425)">
<g clip-path="url(#clip1_0_425)">
<g clip-path="url(#clip2_0_425)">
<path d="M17.9766 6.21916C17.3022 6.52636 16.5882 6.73036 15.8575 6.82156C16.6266 6.34276 17.2038 5.59036 17.4798 4.70356C16.767 5.13556 15.9762 5.44996 15.1339 5.62516C14.5795 5.00956 13.8439 4.60156 13.0411 4.46356C12.2395 4.32556 11.4163 4.46716 10.6999 4.86436C9.98235 5.26156 9.41236 5.89276 9.07757 6.66076C8.74277 7.42876 8.66117 8.29036 8.84717 9.11116C5.77882 8.96116 3.06207 7.43236 1.2417 5.12356C0.910504 5.70676 0.737706 6.37276 0.742506 7.04956C0.742506 8.37916 1.3953 9.54796 2.38288 10.2344C1.79729 10.2152 1.2249 10.0508 0.712507 9.75556V9.80236C0.711307 10.6868 1.0065 11.5436 1.54529 12.2276C2.08528 12.9116 2.83647 13.382 3.67166 13.5572C3.13047 13.7072 2.56408 13.73 2.01208 13.6232C2.24968 14.384 2.71047 15.0488 3.32846 15.5252C3.94765 16.0016 4.69524 16.2656 5.46563 16.2812C4.16005 17.3432 2.54848 17.9192 0.888904 17.918C0.597309 17.918 0.304514 17.9 0.0117188 17.8652C1.70369 18.9896 3.67046 19.5848 5.67922 19.5836C12.4687 19.5836 16.1778 13.754 16.1778 8.70676C16.1778 8.54356 16.1778 8.38036 16.167 8.21716C16.8906 7.67596 17.5158 7.00516 18.0114 6.23476L17.9766 6.21916Z" fill="#4F4F4F"/>
</g>
</g>
</g>
<path d="M49.5036 3.75C51.881 3.75 52.1776 3.75875 53.1103 3.8025C54.0422 3.84625 54.6766 3.99238 55.2348 4.20938C55.8123 4.43163 56.2988 4.73262 56.7853 5.21825C57.2303 5.65566 57.5746 6.18476 57.7942 6.76875C58.0103 7.32612 58.1573 7.96137 58.2011 8.89325C58.2422 9.826 58.2536 10.1226 58.2536 12.5C58.2536 14.8774 58.2448 15.174 58.2011 16.1067C58.1573 17.0386 58.0103 17.673 57.7942 18.2312C57.5752 18.8156 57.2308 19.3448 56.7853 19.7817C56.3478 20.2265 55.8187 20.5708 55.2348 20.7906C54.6775 21.0067 54.0422 21.1537 53.1103 21.1975C52.1776 21.2386 51.881 21.25 49.5036 21.25C47.1262 21.25 46.8296 21.2412 45.8969 21.1975C44.965 21.1537 44.3306 21.0067 43.7724 20.7906C43.1881 20.5714 42.6589 20.2271 42.2219 19.7817C41.7768 19.3444 41.4325 18.8153 41.213 18.2312C40.996 17.6739 40.8499 17.0386 40.8061 16.1067C40.765 15.174 40.7536 14.8774 40.7536 12.5C40.7536 10.1226 40.7624 9.826 40.8061 8.89325C40.8499 7.9605 40.996 7.327 41.213 6.76875C41.4319 6.18441 41.7763 5.65516 42.2219 5.21825C42.6591 4.77308 43.1882 4.42876 43.7724 4.20938C44.3306 3.99238 44.9641 3.84625 45.8969 3.8025C46.8296 3.76137 47.1262 3.75 49.5036 3.75ZM49.5036 8.125C48.3433 8.125 47.2305 8.58594 46.41 9.40641C45.5895 10.2269 45.1286 11.3397 45.1286 12.5C45.1286 13.6603 45.5895 14.7731 46.41 15.5936C47.2305 16.4141 48.3433 16.875 49.5036 16.875C50.6639 16.875 51.7767 16.4141 52.5972 15.5936C53.4177 14.7731 53.8786 13.6603 53.8786 12.5C53.8786 11.3397 53.4177 10.2269 52.5972 9.40641C51.7767 8.58594 50.6639 8.125 49.5036 8.125ZM55.1911 7.90625C55.1911 7.61617 55.0759 7.33797 54.8707 7.13285C54.6656 6.92773 54.3874 6.8125 54.0973 6.8125C53.8073 6.8125 53.5291 6.92773 53.324 7.13285C53.1188 7.33797 53.0036 7.61617 53.0036 7.90625C53.0036 8.19633 53.1188 8.47453 53.324 8.67965C53.5291 8.88477 53.8073 9 54.0973 9C54.3874 9 54.6656 8.88477 54.8707 8.67965C55.0759 8.47453 55.1911 8.19633 55.1911 7.90625ZM49.5036 9.875C50.1998 9.875 50.8675 10.1516 51.3598 10.6438C51.852 11.1361 52.1286 11.8038 52.1286 12.5C52.1286 13.1962 51.852 13.8639 51.3598 14.3562C50.8675 14.8484 50.1998 15.125 49.5036 15.125C48.8074 15.125 48.1397 14.8484 47.6474 14.3562C47.1552 13.8639 46.8786 13.1962 46.8786 12.5C46.8786 11.8038 47.1552 11.1361 47.6474 10.6438C48.1397 10.1516 48.8074 9.875 49.5036 9.875Z" fill="#4F4F4F"/>
<g clip-path="url(#clip3_0_425)">
<g clip-path="url(#clip4_0_425)">
<g clip-path="url(#clip5_0_425)">
<path d="M97.1558 12.0532C97.1558 7.38516 93.3147 3.60156 88.5771 3.60156C83.8408 3.60156 79.9997 7.38516 79.9997 12.0532C79.9997 16.2712 83.1364 19.7668 87.238 20.4004V14.4952H85.0588V12.052H87.238V10.1908C87.238 8.07396 88.5184 6.90276 90.4779 6.90276C91.4151 6.90276 92.3979 7.06836 92.3979 7.06836V9.14796H91.3155C90.2499 9.14796 89.9175 9.79956 89.9175 10.468V12.0532H92.2959L91.9155 14.4964H89.9175V20.4016C94.0191 19.7668 97.1558 16.27 97.1558 12.0532Z" fill="#4F4F4F"/>
</g>
</g>
</g>
<g clip-path="url(#clip6_0_425)">
<g clip-path="url(#clip7_0_425)">
<g clip-path="url(#clip8_0_425)">
<path d="M134.102 20.0394H130.7V14.709C130.7 13.4382 130.674 11.8026 128.928 11.8026C127.153 11.8026 126.883 13.185 126.883 14.6154V20.0394H123.481V9.07855H126.749V10.5726H126.793C127.249 9.71095 128.36 8.80135 130.019 8.80135C133.465 8.80135 134.102 11.0706 134.102 14.0226V20.0394ZM119.639 7.57855C118.543 7.57855 117.664 6.69175 117.664 5.60095C117.664 4.51255 118.544 3.62695 119.639 3.62695C120.729 3.62695 121.614 4.51255 121.614 5.60095C121.614 6.69175 120.729 7.57855 119.639 7.57855ZM121.344 20.0394H117.934V9.07855H121.344V20.0394Z" fill="#4F4F4F"/>
</g>
</g>
</g>
<defs>
<clipPath id="clip0_0_425">
<rect width="17.9997" height="24" fill="white"/>
</clipPath>
<clipPath id="clip1_0_425">
<rect width="17.9997" height="16.8" fill="white" transform="translate(0.0117188 3.60156)"/>
</clipPath>
<clipPath id="clip2_0_425">
<rect width="17.9997" height="16.8" fill="white" transform="translate(0.0117188 3.60156)"/>
</clipPath>
<clipPath id="clip3_0_425">
<rect width="17.9997" height="24" fill="white" transform="translate(79.9997)"/>
</clipPath>
<clipPath id="clip4_0_425">
<rect width="17.9997" height="16.8" fill="white" transform="translate(79.9997 3.60156)"/>
</clipPath>
<clipPath id="clip5_0_425">
<rect width="17.9997" height="16.8" fill="white" transform="translate(79.9997 3.60156)"/>
</clipPath>
<clipPath id="clip6_0_425">
<rect width="17.9997" height="24" fill="white" transform="translate(116.999)"/>
</clipPath>
<clipPath id="clip7_0_425">
<rect width="17.9997" height="18" fill="white" transform="translate(116.999 3)"/>
</clipPath>
<clipPath id="clip8_0_425">
<rect width="17.9997" height="18" fill="white" transform="translate(116.999 3)"/>
</clipPath>
</defs>
</svg>
