<svg width="508" height="20" viewBox="0 0 508 20" fill="none" xmlns="http://www.w3.org/2000/svg">
<path d="M214.292 18.1246C221.837 18.1246 225.965 11.8719 225.965 6.45118C225.965 6.2754 225.961 6.09572 225.954 5.91993C226.757 5.33918 227.45 4.61985 228 3.79572C227.252 4.12847 226.458 4.34579 225.645 4.44025C226.501 3.92706 227.142 3.12086 227.449 2.17111C226.644 2.64843 225.763 2.98514 224.845 3.16681C224.226 2.50927 223.407 2.0739 222.516 1.92801C221.625 1.78212 220.711 1.93384 219.915 2.35971C219.119 2.78559 218.485 3.46189 218.112 4.28406C217.738 5.10623 217.646 6.02848 217.85 6.90822C216.219 6.82638 214.623 6.40272 213.167 5.66472C211.71 4.92671 210.425 3.89083 209.394 2.62423C208.87 3.52734 208.71 4.596 208.946 5.61304C209.182 6.63008 209.796 7.51917 210.664 8.09962C210.012 8.07894 209.375 7.90353 208.805 7.5879V7.63868C208.804 8.58643 209.132 9.50512 209.732 10.2386C210.332 10.9721 211.168 11.4751 212.097 11.6621C211.493 11.8272 210.86 11.8513 210.246 11.7324C210.508 12.5475 211.018 13.2604 211.705 13.7716C212.392 14.2828 213.221 14.5668 214.077 14.584C212.624 15.7256 210.828 16.3447 208.98 16.3418C208.653 16.3413 208.325 16.3212 208 16.2817C209.877 17.4861 212.061 18.1258 214.292 18.1246Z" fill="#98A2B3"/>
<g clip-path="url(#clip0_0_593)">
<path d="M262.52 0H245.477C244.66 0 244 0.644531 244 1.44141V18.5547C244 19.3516 244.66 20 245.477 20H262.52C263.336 20 264 19.3516 264 18.5586V1.44141C264 0.644531 263.336 0 262.52 0ZM249.934 17.043H246.965V7.49609H249.934V17.043ZM248.449 6.19531C247.496 6.19531 246.727 5.42578 246.727 4.47656C246.727 3.52734 247.496 2.75781 248.449 2.75781C249.398 2.75781 250.168 3.52734 250.168 4.47656C250.168 5.42188 249.398 6.19531 248.449 6.19531ZM261.043 17.043H258.078V12.4023C258.078 11.2969 258.059 9.87109 256.535 9.87109C254.992 9.87109 254.758 11.0781 254.758 12.3242V17.043H251.797V7.49609H254.641V8.80078H254.68C255.074 8.05078 256.043 7.25781 257.484 7.25781C260.488 7.25781 261.043 9.23438 261.043 11.8047V17.043Z" fill="#98A2B3"/>
</g>
<g clip-path="url(#clip1_0_593)">
<path d="M290 13.75C289.354 13.75 288.709 13.5382 288.158 13.109L280 6.76562V15.625C280 16.6602 280.839 17.5 281.875 17.5H298.125C299.161 17.5 300 16.6605 300 15.625V6.76562L291.844 13.1133C291.293 13.5391 290.645 13.75 290 13.75ZM280.636 5.67578L288.925 12.125C289.558 12.6172 290.444 12.6172 291.076 12.125L299.365 5.67578C299.73 5.36328 300 4.88281 300 4.375C300 3.33945 299.16 2.5 298.125 2.5H281.875C280.839 2.5 280 3.33945 280 4.375C280 4.88281 280.235 5.36328 280.636 5.67578Z" fill="#98A2B3"/>
</g>
<defs>
<clipPath id="clip0_0_593">
<rect width="20" height="20" fill="white" transform="translate(244)"/>
</clipPath>
<clipPath id="clip1_0_593">
<rect width="20" height="16" fill="white" transform="translate(280 2)"/>
</clipPath>
</defs>
</svg>
