<svg width="17" height="16" viewBox="0 0 17 16" fill="none" xmlns="http://www.w3.org/2000/svg">
<path d="M6.52599 5.55905C6.52599 5.55905 4.02275 5.8363 2.35287 6.02167C2.20236 6.03989 2.06928 6.14049 2.01937 6.29338C1.96946 6.44627 2.01937 6.60549 2.13027 6.7061C3.3708 7.8381 5.23476 9.53333 5.23476 9.53333C5.23318 9.53333 4.72302 11.9993 4.38398 13.6447C4.35546 13.7936 4.40933 13.9512 4.53924 14.0455C4.66837 14.1398 4.83472 14.1413 4.96543 14.0677C6.42618 13.2375 8.61413 11.989 8.61413 11.989C8.61413 11.989 10.8029 13.2375 12.2613 14.0685C12.3943 14.1413 12.5607 14.1398 12.6898 14.0455C12.8197 13.9512 12.8736 13.7936 12.8443 13.6455C12.5052 11.9993 11.9959 9.53333 11.9959 9.53333C11.9959 9.53333 13.8598 7.8381 15.1004 6.70848C15.2113 6.6047 15.2604 6.44548 15.2113 6.29338C15.1622 6.14129 15.0291 6.04068 14.8786 6.02325C13.2087 5.8363 10.7047 5.55905 10.7047 5.55905C10.7047 5.55905 9.66692 3.26336 8.97536 1.7329C8.9104 1.59585 8.77415 1.5 8.61413 1.5C8.45412 1.5 8.31707 1.59664 8.25528 1.7329C7.56293 3.26336 6.52599 5.55905 6.52599 5.55905Z" fill="black"/>
<path d="M6.52599 5.55905C6.52599 5.55905 4.02275 5.8363 2.35287 6.02167C2.20236 6.03989 2.06928 6.14049 2.01937 6.29338C1.96946 6.44627 2.01937 6.60549 2.13027 6.7061C3.3708 7.8381 5.23476 9.53333 5.23476 9.53333C5.23318 9.53333 4.72302 11.9993 4.38398 13.6447C4.35546 13.7936 4.40933 13.9512 4.53924 14.0455C4.66837 14.1398 4.83472 14.1413 4.96543 14.0677C6.42618 13.2375 8.61413 11.989 8.61413 11.989C8.61413 11.989 10.8029 13.2375 12.2613 14.0685C12.3943 14.1413 12.5607 14.1398 12.6898 14.0455C12.8197 13.9512 12.8736 13.7936 12.8443 13.6455C12.5052 11.9993 11.9959 9.53333 11.9959 9.53333C11.9959 9.53333 13.8598 7.8381 15.1004 6.70848C15.2113 6.6047 15.2604 6.44548 15.2113 6.29338C15.1622 6.14129 15.0291 6.04068 14.8786 6.02325C13.2087 5.8363 10.7047 5.55905 10.7047 5.55905C10.7047 5.55905 9.66692 3.26336 8.97536 1.7329C8.9104 1.59585 8.77415 1.5 8.61413 1.5C8.45412 1.5 8.31707 1.59664 8.25528 1.7329C7.56293 3.26336 6.52599 5.55905 6.52599 5.55905Z" fill="url(#paint0_linear_0_560)"/>
<defs>
<linearGradient id="paint0_linear_0_560" x1="1.97037" y1="1.5" x2="15.6824" y2="1.97733" gradientUnits="userSpaceOnUse">
<stop stop-color="#EF9F1D"/>
<stop offset="1" stop-color="#D78808"/>
</linearGradient>
</defs>
</svg>
