<svg width="41" height="40" viewBox="0 0 41 40" fill="none" xmlns="http://www.w3.org/2000/svg">
<path d="M33.5484 21.9943V3.58496C33.5484 3.4451 33.4929 3.31097 33.394 3.21207C33.2951 3.11318 33.161 3.05762 33.0211 3.05762H11.9664C11.8265 3.05762 11.6924 3.11318 11.5935 3.21207C11.4946 3.31097 11.4391 3.4451 11.4391 3.58496V6.40605H9.65937C9.51951 6.40605 9.38538 6.46161 9.28649 6.56051C9.18759 6.65941 9.13203 6.79354 9.13203 6.9334V17.1467C8.42073 17.3213 7.78846 17.7292 7.33615 18.3053C6.88385 18.8814 6.6376 19.5924 6.63672 20.3248V35.2771C6.63713 35.7186 6.81267 36.1418 7.1248 36.4539C7.43693 36.766 7.86015 36.9416 8.30156 36.942H33.5078C33.9492 36.9416 34.3724 36.766 34.6846 36.4539C34.9967 36.1418 35.1722 35.7186 35.1727 35.2771V23.6576C35.172 23.2234 35.0019 22.8066 34.6985 22.496C34.3951 22.1853 33.9825 22.0053 33.5484 21.9943ZM12.4937 4.1123H32.4937V21.9936H31.1156V11.0811C31.1156 11.0631 31.1156 11.0459 31.1156 11.0279C31.1156 11.01 31.1117 10.999 31.1094 10.985C31.107 10.9709 31.1094 10.9795 31.1094 10.9764C31.0886 10.8736 31.0374 10.7794 30.9625 10.7061L26.7641 6.5623C26.751 6.54853 26.7369 6.53574 26.7219 6.52402L26.7164 6.51934C26.705 6.50996 26.6932 6.50137 26.6813 6.49356L26.6734 6.48887C26.6617 6.48105 26.6492 6.47402 26.6367 6.46699H26.6297L26.5906 6.44824H26.5844C26.5707 6.44236 26.5566 6.4374 26.5422 6.4334H26.5352C26.5213 6.42928 26.5072 6.42589 26.493 6.42324H26.4773C26.4658 6.42066 26.454 6.41883 26.4422 6.41777C26.425 6.41777 26.407 6.41777 26.3898 6.41777H12.4937V4.1123ZM26.9203 8.19668L29.3063 10.5537H26.9203V8.19668ZM25.8656 7.4623V11.0811C25.8656 11.2209 25.9212 11.355 26.0201 11.4539C26.119 11.5528 26.2531 11.6084 26.393 11.6084H30.0648V21.9936H27.5156V20.3248C27.5148 19.4572 27.1698 18.6254 26.5564 18.0119C25.9431 17.3983 25.1113 17.0532 24.2437 17.0521H10.1867V7.4623H25.8656ZM34.1203 35.2748C34.1201 35.4366 34.0558 35.5916 33.9414 35.706C33.827 35.8204 33.6719 35.8848 33.5102 35.885H8.30156C8.1398 35.8848 7.98473 35.8204 7.87034 35.706C7.75596 35.5916 7.69161 35.4366 7.69141 35.2748V20.3248C7.69223 19.7368 7.92618 19.1731 8.34195 18.7574C8.75772 18.3416 9.32139 18.1077 9.90937 18.1068H24.2437C24.8317 18.1077 25.3953 18.3416 25.8109 18.7574C26.2265 19.1732 26.4603 19.7369 26.4609 20.3248V22.5209C26.4611 22.6607 26.5168 22.7947 26.6156 22.8936C26.7145 22.9924 26.8485 23.048 26.9883 23.0482H33.5078C33.6694 23.0484 33.8244 23.1127 33.9388 23.2269C34.0531 23.3411 34.1176 23.496 34.118 23.6576L34.1203 35.2748Z" fill="#5E5E6B" stroke="#5E5E6B" stroke-width="0.8"/>
<path d="M13.2656 11.6084H24.0664C24.2063 11.6084 24.3404 11.5528 24.4393 11.4539C24.5382 11.355 24.5938 11.2209 24.5938 11.0811C24.5938 10.9412 24.5382 10.8071 24.4393 10.7082C24.3404 10.6093 24.2063 10.5537 24.0664 10.5537H13.2656C13.1258 10.5537 12.9916 10.6093 12.8927 10.7082C12.7938 10.8071 12.7383 10.9412 12.7383 11.0811C12.7383 11.2209 12.7938 11.355 12.8927 11.4539C12.9916 11.5528 13.1258 11.6084 13.2656 11.6084Z" fill="#5E5E6B" stroke="#5E5E6B" stroke-width="0.8"/>
<path d="M24.0688 13.791H21.1289C20.989 13.791 20.8549 13.8466 20.756 13.9455C20.6571 14.0444 20.6016 14.1785 20.6016 14.3184C20.6016 14.4582 20.6571 14.5924 20.756 14.6912C20.8549 14.7901 20.989 14.8457 21.1289 14.8457H24.0688C24.2086 14.8457 24.3427 14.7901 24.4416 14.6912C24.5405 14.5924 24.5961 14.4582 24.5961 14.3184C24.5961 14.1785 24.5405 14.0444 24.4416 13.9455C24.3427 13.8466 24.2086 13.791 24.0688 13.791Z" fill="#5E5E6B" stroke="#5E5E6B" stroke-width="0.8"/>
<path d="M13.2656 14.8438H18.6656C18.8055 14.8438 18.9396 14.7882 19.0385 14.6893C19.1374 14.5904 19.193 14.4563 19.193 14.3164C19.193 14.1765 19.1374 14.0424 19.0385 13.9435C18.9396 13.8446 18.8055 13.7891 18.6656 13.7891H13.2656C13.1258 13.7891 12.9916 13.8446 12.8927 13.9435C12.7938 14.0424 12.7383 14.1765 12.7383 14.3164C12.7383 14.4563 12.7938 14.5904 12.8927 14.6893C12.9916 14.7882 13.1258 14.8438 13.2656 14.8438Z" fill="#5E5E6B" stroke="#5E5E6B" stroke-width="0.8"/>
<path d="M20.9292 25.5101C20.8931 25.407 20.8258 25.3176 20.7366 25.2544C20.6475 25.1912 20.5409 25.1572 20.4316 25.1572C20.3223 25.1572 20.2157 25.1912 20.1265 25.2544C20.0374 25.3176 19.9701 25.407 19.9339 25.5101L17.4519 32.5523C17.4054 32.6843 17.4132 32.8294 17.4736 32.9556C17.5341 33.0818 17.6422 33.1788 17.7741 33.2254C17.9061 33.2719 18.0512 33.2641 18.1774 33.2036C18.3036 33.1432 18.4007 33.0351 18.4472 32.9031L18.9667 31.4297H21.8964L22.4159 32.9031C22.4625 33.0351 22.5595 33.1432 22.6857 33.2036C22.8119 33.2641 22.957 33.2719 23.089 33.2254C23.221 33.1788 23.3291 33.0818 23.3895 32.9556C23.45 32.8294 23.4578 32.6843 23.4113 32.5523L20.9292 25.5101ZM19.3378 30.375L19.3761 30.2664L19.5105 29.8867L20.4308 27.2742L21.5245 30.3773L19.3378 30.375Z" fill="#5E5E6B" stroke="#5E5E6B" stroke-width="0.8"/>
<path d="M16.6016 25.0928H12.5391C12.3992 25.0928 12.2651 25.1483 12.1662 25.2472C12.0673 25.3461 12.0117 25.4803 12.0117 25.6201C12.0117 25.76 12.0673 25.8941 12.1662 25.993C12.2651 26.0919 12.3992 26.1475 12.5391 26.1475H14.043V32.6615C14.043 32.8014 14.0985 32.9355 14.1974 33.0344C14.2963 33.1333 14.4305 33.1889 14.5703 33.1889C14.7102 33.1889 14.8443 33.1333 14.9432 33.0344C15.0421 32.9355 15.0977 32.8014 15.0977 32.6615V26.1475H16.6016C16.7414 26.1475 16.8756 26.0919 16.9745 25.993C17.0733 25.8941 17.1289 25.76 17.1289 25.6201C17.1289 25.4803 17.0733 25.3461 16.9745 25.2472C16.8756 25.1483 16.7414 25.0928 16.6016 25.0928Z" fill="#5E5E6B" stroke="#5E5E6B" stroke-width="0.8"/>
<path d="M29.5408 25.1667C29.4206 25.0953 29.277 25.0745 29.1415 25.1089C29.006 25.1433 28.8897 25.2302 28.8181 25.3503L27.1775 28.1042L25.5369 25.3503C25.5023 25.2893 25.4558 25.2357 25.4003 25.1929C25.3447 25.15 25.2812 25.1186 25.2133 25.1006C25.1455 25.0826 25.0747 25.0784 25.0052 25.0881C24.9357 25.0978 24.8689 25.1212 24.8085 25.1571C24.7482 25.193 24.6957 25.2406 24.654 25.297C24.6123 25.3535 24.5823 25.4177 24.5657 25.4859C24.5491 25.5541 24.5463 25.6249 24.5575 25.6942C24.5686 25.7635 24.5935 25.8298 24.6306 25.8894L26.5627 29.1355L24.6322 32.3816C24.5968 32.4411 24.5734 32.507 24.5634 32.5755C24.5534 32.6441 24.5571 32.7139 24.5741 32.781C24.5911 32.8482 24.6211 32.9113 24.6626 32.9668C24.704 33.0223 24.7559 33.0692 24.8154 33.1046C24.8749 33.1401 24.9408 33.1634 25.0094 33.1734C25.0779 33.1834 25.1477 33.1798 25.2149 33.1628C25.282 33.1457 25.3452 33.1157 25.4007 33.0743C25.4562 33.0329 25.503 32.9809 25.5385 32.9214L27.1791 30.1667L28.8197 32.9214C28.8913 33.0416 29.0077 33.1284 29.1433 33.1628C29.2789 33.1971 29.4226 33.1762 29.5428 33.1046C29.6629 33.033 29.7498 32.9166 29.7841 32.781C29.8185 32.6454 29.7975 32.5017 29.726 32.3816L27.7939 29.1355L29.726 25.8894C29.7614 25.8298 29.7847 25.7638 29.7945 25.6952C29.8044 25.6266 29.8006 25.5567 29.7834 25.4896C29.7662 25.4225 29.7359 25.3594 29.6943 25.304C29.6527 25.2486 29.6005 25.2019 29.5408 25.1667Z" fill="#5E5E6B" stroke="#5E5E6B" stroke-width="0.8"/>
</svg>
