<svg width="62" height="62" viewBox="0 0 62 62" fill="none" xmlns="http://www.w3.org/2000/svg">
<g filter="url(#filter0_ddi_0_794)">
<rect x="3" y="2" width="56" height="56" rx="12" fill="url(#paint0_linear_0_794)"/>
<rect x="7" y="6" width="48" height="48" rx="12" fill="white" fill-opacity="0.7"/>
<rect opacity="0.5" x="34" y="18" width="8" height="5" rx="1" fill="white"/>
<rect opacity="0.5" x="34" y="23" width="8" height="5" rx="1" fill="white"/>
<path d="M14 19.0002H20V43.8402C19.999 44.35 20.1279 44.8517 20.3746 45.2979C20.6213 45.7441 20.9777 46.12 21.41 46.3902C22.34 47.0002 22.78 48.0002 24.33 48.0002C26.5 48.0002 26.5 46.0002 28.66 46.0002C30.82 46.0002 30.83 48.0002 32.99 48.0002C35.15 48.0002 35.16 46.0002 37.33 46.0002C39.5 46.0002 39.49 48.0002 41.66 48.0002C43.22 48.0002 43.66 47.0002 44.59 46.3902C45.0223 46.12 45.3787 45.7441 45.6254 45.2979C45.8721 44.8517 46.001 44.35 46 43.8402V17.0002C46 15.6741 45.4732 14.4023 44.5355 13.4647C43.5979 12.527 42.3261 12.0002 41 12.0002H17C16.664 11.9971 16.3287 12.0306 16 12.1002C14.8706 12.3307 13.8556 12.9444 13.1267 13.8373C12.3978 14.7302 11.9998 15.8475 12 17.0002C12 17.5306 12.2107 18.0393 12.5858 18.4144C12.9609 18.7895 13.4696 19.0002 14 19.0002ZM41 14.0002C41.7956 14.0002 42.5587 14.3163 43.1213 14.8789C43.6839 15.4415 44 16.2046 44 17.0002V43.8402C43.9993 44.0111 43.9548 44.1789 43.8708 44.3278C43.7867 44.4766 43.666 44.6013 43.52 44.6902C43.1466 44.9396 42.7953 45.2206 42.47 45.5302C41.98 45.9802 41.93 46.0002 41.66 46.0002C41.39 46.0002 41.34 46.0002 40.85 45.5302C40.3988 45.0558 39.8559 44.678 39.2542 44.4199C38.6526 44.1618 38.0047 44.0287 37.35 44.0287C36.6953 44.0287 36.0474 44.1618 35.4458 44.4199C34.8441 44.678 34.3012 45.0558 33.85 45.5302C33.36 45.9802 33.31 46.0002 33.04 46.0002C32.77 46.0002 32.73 46.0002 32.24 45.5302C31.7888 45.0558 31.2459 44.678 30.6442 44.4199C30.0426 44.1618 29.3947 44.0287 28.74 44.0287C28.0853 44.0287 27.4374 44.1618 26.8358 44.4199C26.2341 44.678 25.6912 45.0558 25.24 45.5302C24.75 45.9802 24.7 46.0002 24.43 46.0002C24.16 46.0002 24.12 46.0002 23.63 45.5302C23.3068 45.2183 22.9553 44.9371 22.58 44.6902C22.434 44.6013 22.3133 44.4766 22.2292 44.3278C22.1452 44.1789 22.1007 44.0111 22.1 43.8402V17.0002C22.1017 15.9629 21.8729 14.9382 21.43 14.0002H41ZM16.22 14.1002H16.43C16.6164 14.0489 16.8073 14.0155 17 14.0002C17.7939 13.9982 18.5563 14.3111 19.12 14.8702C19.5335 15.2917 19.8179 15.8225 19.94 16.4002C19.9704 16.599 19.9904 16.7993 20 17.0002H14C13.9993 16.3399 14.2165 15.6978 14.6179 15.1735C15.0192 14.6491 15.5824 14.2719 16.22 14.1002Z" fill="#7472FF"/>
<path d="M35 20H41C41.2652 20 41.5196 19.8946 41.7071 19.7071C41.8946 19.5196 42 19.2652 42 19C42 18.7348 41.8946 18.4804 41.7071 18.2929C41.5196 18.1054 41.2652 18 41 18H35C34.7348 18 34.4804 18.1054 34.2929 18.2929C34.1054 18.4804 34 18.7348 34 19C34 19.2652 34.1054 19.5196 34.2929 19.7071C34.4804 19.8946 34.7348 20 35 20Z" fill="#7472FF"/>
<path d="M35 24H41C41.2652 24 41.5196 23.8946 41.7071 23.7071C41.8946 23.5196 42 23.2652 42 23C42 22.7348 41.8946 22.4804 41.7071 22.2929C41.5196 22.1054 41.2652 22 41 22H35C34.7348 22 34.4804 22.1054 34.2929 22.2929C34.1054 22.4804 34 22.7348 34 23C34 23.2652 34.1054 23.5196 34.2929 23.7071C34.4804 23.8946 34.7348 24 35 24Z" fill="#7472FF"/>
<rect opacity="0.5" x="24" y="31" width="18" height="5" rx="1" fill="white"/>
<path d="M35 28H41C41.2652 28 41.5196 27.8946 41.7071 27.7071C41.8946 27.5196 42 27.2652 42 27C42 26.7348 41.8946 26.4804 41.7071 26.2929C41.5196 26.1054 41.2652 26 41 26H35C34.7348 26 34.4804 26.1054 34.2929 26.2929C34.1054 26.4804 34 26.7348 34 27C34 27.2652 34.1054 27.5196 34.2929 27.7071C34.4804 27.8946 34.7348 28 35 28Z" fill="#7472FF"/>
<path d="M25 33H41C41.2652 33 41.5196 32.8946 41.7071 32.7071C41.8946 32.5196 42 32.2652 42 32C42 31.7348 41.8946 31.4804 41.7071 31.2929C41.5196 31.1054 41.2652 31 41 31H25C24.7348 31 24.4804 31.1054 24.2929 31.2929C24.1054 31.4804 24 31.7348 24 32C24 32.2652 24.1054 32.5196 24.2929 32.7071C24.4804 32.8946 24.7348 33 25 33Z" fill="#7472FF"/>
<rect opacity="0.5" x="25" y="19" width="6" height="7" fill="white"/>
<path d="M25 37H41C41.2652 37 41.5196 36.8946 41.7071 36.7071C41.8946 36.5196 42 36.2652 42 36C42 35.7348 41.8946 35.4804 41.7071 35.2929C41.5196 35.1054 41.2652 35 41 35H25C24.7348 35 24.4804 35.1054 24.2929 35.2929C24.1054 35.4804 24 35.7348 24 36C24 36.2652 24.1054 36.5196 24.2929 36.7071C24.4804 36.8946 24.7348 37 25 37Z" fill="#7472FF"/>
<path d="M26 28H30C30.5304 28 31.0391 27.7893 31.4142 27.4142C31.7893 27.0391 32 26.5304 32 26V20C32 19.4696 31.7893 18.9609 31.4142 18.5858C31.0391 18.2107 30.5304 18 30 18H26C25.4696 18 24.9609 18.2107 24.5858 18.5858C24.2107 18.9609 24 19.4696 24 20V26C24 26.5304 24.2107 27.0391 24.5858 27.4142C24.9609 27.7893 25.4696 28 26 28ZM26 20H30V26H26V20Z" fill="#7472FF"/>
</g>
<defs>
<filter id="filter0_ddi_0_794" x="0" y="0" width="62" height="62" filterUnits="userSpaceOnUse" color-interpolation-filters="sRGB">
<feFlood flood-opacity="0" result="BackgroundImageFix"/>
<feColorMatrix in="SourceAlpha" type="matrix" values="0 0 0 0 0 0 0 0 0 0 0 0 0 0 0 0 0 0 127 0" result="hardAlpha"/>
<feMorphology radius="1" operator="dilate" in="SourceAlpha" result="effect1_dropShadow_0_794"/>
<feOffset/>
<feComposite in2="hardAlpha" operator="out"/>
<feColorMatrix type="matrix" values="0 0 0 0 0.262745 0 0 0 0 0.219608 0 0 0 0 0.792157 0 0 0 0.6 0"/>
<feBlend mode="normal" in2="BackgroundImageFix" result="effect1_dropShadow_0_794"/>
<feColorMatrix in="SourceAlpha" type="matrix" values="0 0 0 0 0 0 0 0 0 0 0 0 0 0 0 0 0 0 127 0" result="hardAlpha"/>
<feOffset dy="1"/>
<feGaussianBlur stdDeviation="1.5"/>
<feComposite in2="hardAlpha" operator="out"/>
<feColorMatrix type="matrix" values="0 0 0 0 0.192157 0 0 0 0 0.180392 0 0 0 0 0.505882 0 0 0 0.4 0"/>
<feBlend mode="normal" in2="effect1_dropShadow_0_794" result="effect2_dropShadow_0_794"/>
<feBlend mode="normal" in="SourceGraphic" in2="effect2_dropShadow_0_794" result="shape"/>
<feColorMatrix in="SourceAlpha" type="matrix" values="0 0 0 0 0 0 0 0 0 0 0 0 0 0 0 0 0 0 127 0" result="hardAlpha"/>
<feOffset dy="1"/>
<feGaussianBlur stdDeviation="0.5"/>
<feComposite in2="hardAlpha" operator="arithmetic" k2="-1" k3="1"/>
<feColorMatrix type="matrix" values="0 0 0 0 0.505882 0 0 0 0 0.54902 0 0 0 0 0.972549 0 0 0 1 0"/>
<feBlend mode="normal" in2="shape" result="effect3_innerShadow_0_794"/>
</filter>
<linearGradient id="paint0_linear_0_794" x1="31" y1="2" x2="31" y2="58" gradientUnits="userSpaceOnUse">
<stop offset="0.25" stop-color="#818CF8"/>
<stop offset="1" stop-color="#6366F1"/>
</linearGradient>
</defs>
</svg>
