<svg width="17" height="17" viewBox="0 0 17 17" fill="none" xmlns="http://www.w3.org/2000/svg">
<path d="M6.0715 3.34046L6.80995 3.87699C6.89463 3.93852 6.95765 4.02529 6.98998 4.12485C7.02232 4.2244 7.02231 4.33164 6.98995 4.43119L6.70807 5.29934C6.67574 5.39889 6.67575 5.50612 6.7081 5.60566C6.74045 5.7052 6.80348 5.79195 6.88816 5.85347C6.97284 5.91499 7.07482 5.94813 7.17949 5.94813C7.28416 5.94813 7.38614 5.915 7.47082 5.85349L8.20935 5.31696C8.29402 5.25543 8.396 5.22229 8.50067 5.22229C8.60534 5.22229 8.70732 5.25543 8.792 5.31696L9.53052 5.85349C9.61521 5.915 9.71719 5.94813 9.82186 5.94813C9.92653 5.94813 10.0285 5.91499 10.1132 5.85347C10.1979 5.79195 10.2609 5.7052 10.2932 5.60566C10.3256 5.50612 10.3256 5.39889 10.2933 5.29934L10.0111 4.43119C9.97872 4.33164 9.97871 4.2244 10.011 4.12485C10.0434 4.02529 10.1064 3.93853 10.1911 3.87699L10.9295 3.34046C11.0142 3.27893 11.0773 3.19217 11.1096 3.09262C11.1419 2.99307 11.1419 2.88583 11.1096 2.78628C11.0772 2.68673 11.0142 2.59997 10.9295 2.53845C10.8448 2.47692 10.7428 2.44379 10.6382 2.44379H9.72557C9.6209 2.44377 9.51892 2.41063 9.43423 2.34911C9.34955 2.28758 9.28651 2.20083 9.25415 2.10129L8.972 1.23314C8.93966 1.13358 8.87663 1.04682 8.79195 0.985294C8.70726 0.923765 8.60527 0.890625 8.5006 0.890625C8.39592 0.890625 8.29393 0.923765 8.20925 0.985294C8.12457 1.04682 8.06154 1.13358 8.0292 1.23314L7.7471 2.10129C7.71474 2.20085 7.65169 2.28762 7.56698 2.34915C7.48228 2.41067 7.38027 2.4438 7.27557 2.44379H6.36287C6.2582 2.44379 6.15621 2.47692 6.07152 2.53845C5.98684 2.59997 5.9238 2.68673 5.89145 2.78628C5.8591 2.88583 5.8591 2.99307 5.89144 3.09262C5.92379 3.19217 5.98682 3.27893 6.0715 3.34046Z" fill="black"/>
<path d="M6.0715 3.34046L6.80995 3.87699C6.89463 3.93852 6.95765 4.02529 6.98998 4.12485C7.02232 4.2244 7.02231 4.33164 6.98995 4.43119L6.70807 5.29934C6.67574 5.39889 6.67575 5.50612 6.7081 5.60566C6.74045 5.7052 6.80348 5.79195 6.88816 5.85347C6.97284 5.91499 7.07482 5.94813 7.17949 5.94813C7.28416 5.94813 7.38614 5.915 7.47082 5.85349L8.20935 5.31696C8.29402 5.25543 8.396 5.22229 8.50067 5.22229C8.60534 5.22229 8.70732 5.25543 8.792 5.31696L9.53052 5.85349C9.61521 5.915 9.71719 5.94813 9.82186 5.94813C9.92653 5.94813 10.0285 5.91499 10.1132 5.85347C10.1979 5.79195 10.2609 5.7052 10.2932 5.60566C10.3256 5.50612 10.3256 5.39889 10.2933 5.29934L10.0111 4.43119C9.97872 4.33164 9.97871 4.2244 10.011 4.12485C10.0434 4.02529 10.1064 3.93853 10.1911 3.87699L10.9295 3.34046C11.0142 3.27893 11.0773 3.19217 11.1096 3.09262C11.1419 2.99307 11.1419 2.88583 11.1096 2.78628C11.0772 2.68673 11.0142 2.59997 10.9295 2.53845C10.8448 2.47692 10.7428 2.44379 10.6382 2.44379H9.72557C9.6209 2.44377 9.51892 2.41063 9.43423 2.34911C9.34955 2.28758 9.28651 2.20083 9.25415 2.10129L8.972 1.23314C8.93966 1.13358 8.87663 1.04682 8.79195 0.985294C8.70726 0.923765 8.60527 0.890625 8.5006 0.890625C8.39592 0.890625 8.29393 0.923765 8.20925 0.985294C8.12457 1.04682 8.06154 1.13358 8.0292 1.23314L7.7471 2.10129C7.71474 2.20085 7.65169 2.28762 7.56698 2.34915C7.48228 2.41067 7.38027 2.4438 7.27557 2.44379H6.36287C6.2582 2.44379 6.15621 2.47692 6.07152 2.53845C5.98684 2.59997 5.9238 2.68673 5.89145 2.78628C5.8591 2.88583 5.8591 2.99307 5.89144 3.09262C5.92379 3.19217 5.98682 3.27893 6.0715 3.34046Z" fill="url(#paint0_linear_0_573)"/>
<path d="M9.86143 11.0342C9.80872 11.0116 9.76381 10.9739 9.73226 10.926C9.70072 10.8781 9.68391 10.822 9.68393 10.7646C9.68356 10.7236 9.69161 10.6829 9.7076 10.6452C9.72359 10.6074 9.74717 10.5734 9.77688 10.5451C9.79501 10.5278 9.81236 10.5108 9.82536 10.4971C9.91728 10.4003 9.99839 10.2938 10.0672 10.1794C10.2483 9.87725 10.3381 9.52914 10.3257 9.17709C10.3133 8.82504 10.1993 8.48409 9.99745 8.19539C9.7956 7.90668 9.51452 7.68256 9.18812 7.55006C8.86172 7.41755 8.50395 7.38233 8.15798 7.44865C7.80542 7.51039 7.47959 7.67677 7.22287 7.92617C6.96614 8.17557 6.79039 8.49645 6.71848 8.84707C6.65201 9.14898 6.66332 9.46282 6.75135 9.75916C6.83938 10.0555 7.00124 10.3246 7.22176 10.5413C7.25167 10.5696 7.27562 10.6037 7.2922 10.6414C7.30878 10.6792 7.31766 10.7199 7.31831 10.7611V10.7626C7.31884 10.8205 7.30228 10.8772 7.2707 10.9257C7.23912 10.9742 7.19394 11.0122 7.14081 11.0351C6.41358 11.3364 5.83366 11.911 5.52581 12.6355C5.30938 13.1316 5.20082 13.6681 5.20731 14.2093V14.5993C5.20731 14.6829 5.22378 14.7658 5.25579 14.843C5.28781 14.9203 5.33473 14.9905 5.39388 15.0496C5.45302 15.1088 5.52324 15.1556 5.60052 15.1876C5.6778 15.2196 5.76062 15.2361 5.84426 15.236H11.1595C11.3284 15.236 11.4903 15.169 11.6097 15.0495C11.7291 14.9301 11.7962 14.7682 11.7962 14.5993V14.2054C11.8026 13.6644 11.6939 13.1282 11.4771 12.6324C11.1687 11.9086 10.5886 11.3347 9.86143 11.0342Z" fill="black"/>
<path d="M9.86143 11.0342C9.80872 11.0116 9.76381 10.9739 9.73226 10.926C9.70072 10.8781 9.68391 10.822 9.68393 10.7646C9.68356 10.7236 9.69161 10.6829 9.7076 10.6452C9.72359 10.6074 9.74717 10.5734 9.77688 10.5451C9.79501 10.5278 9.81236 10.5108 9.82536 10.4971C9.91728 10.4003 9.99839 10.2938 10.0672 10.1794C10.2483 9.87725 10.3381 9.52914 10.3257 9.17709C10.3133 8.82504 10.1993 8.48409 9.99745 8.19539C9.7956 7.90668 9.51452 7.68256 9.18812 7.55006C8.86172 7.41755 8.50395 7.38233 8.15798 7.44865C7.80542 7.51039 7.47959 7.67677 7.22287 7.92617C6.96614 8.17557 6.79039 8.49645 6.71848 8.84707C6.65201 9.14898 6.66332 9.46282 6.75135 9.75916C6.83938 10.0555 7.00124 10.3246 7.22176 10.5413C7.25167 10.5696 7.27562 10.6037 7.2922 10.6414C7.30878 10.6792 7.31766 10.7199 7.31831 10.7611V10.7626C7.31884 10.8205 7.30228 10.8772 7.2707 10.9257C7.23912 10.9742 7.19394 11.0122 7.14081 11.0351C6.41358 11.3364 5.83366 11.911 5.52581 12.6355C5.30938 13.1316 5.20082 13.6681 5.20731 14.2093V14.5993C5.20731 14.6829 5.22378 14.7658 5.25579 14.843C5.28781 14.9203 5.33473 14.9905 5.39388 15.0496C5.45302 15.1088 5.52324 15.1556 5.60052 15.1876C5.6778 15.2196 5.76062 15.2361 5.84426 15.236H11.1595C11.3284 15.236 11.4903 15.169 11.6097 15.0495C11.7291 14.9301 11.7962 14.7682 11.7962 14.5993V14.2054C11.8026 13.6644 11.6939 13.1282 11.4771 12.6324C11.1687 11.9086 10.5886 11.3347 9.86143 11.0342Z" fill="url(#paint1_linear_0_573)"/>
<path d="M15.7209 11.7534C15.4125 11.0296 14.8324 10.4558 14.1054 10.1552C14.0527 10.1325 14.0078 10.0949 13.9762 10.047C13.9447 9.99907 13.9279 9.94295 13.9279 9.88558C13.9275 9.84458 13.9356 9.80394 13.9516 9.76618C13.9675 9.72842 13.9911 9.69435 14.0208 9.66608C14.039 9.64878 14.0564 9.63178 14.0693 9.61806C14.1612 9.52134 14.2424 9.41488 14.3112 9.30056C14.4923 8.99839 14.5821 8.65028 14.5697 8.29822C14.5573 7.94616 14.4433 7.6052 14.2415 7.31648C14.0396 7.02777 13.7586 6.80364 13.4321 6.67114C13.1057 6.53864 12.748 6.50343 12.402 6.56976C12.0494 6.63147 11.7236 6.79785 11.4668 7.04725C11.2101 7.29666 11.0344 7.61755 10.9625 7.96818C10.896 8.27008 10.9073 8.58392 10.9953 8.88026C11.0834 9.1766 11.2452 9.44572 11.4657 9.66238C11.4956 9.69073 11.5196 9.72479 11.5362 9.76253C11.5528 9.80028 11.5616 9.84096 11.5623 9.88218V9.88376C11.5628 9.94161 11.5463 9.99834 11.5147 10.0468C11.4831 10.0953 11.4379 10.1334 11.3848 10.1563C11.0943 10.2752 10.8247 10.4397 10.5859 10.6434C11.2558 11.0406 11.7825 11.6397 12.0906 12.3549C12.3477 12.9378 12.477 13.5691 12.4697 14.2062V14.3572H15.4033C15.5721 14.3572 15.7341 14.2902 15.8535 14.1708C15.9729 14.0514 16.0399 13.8894 16.04 13.7206V13.3264C16.0464 12.7854 15.9377 12.2492 15.7209 11.7534Z" fill="black"/>
<path d="M15.7209 11.7534C15.4125 11.0296 14.8324 10.4558 14.1054 10.1552C14.0527 10.1325 14.0078 10.0949 13.9762 10.047C13.9447 9.99907 13.9279 9.94295 13.9279 9.88558C13.9275 9.84458 13.9356 9.80394 13.9516 9.76618C13.9675 9.72842 13.9911 9.69435 14.0208 9.66608C14.039 9.64878 14.0564 9.63178 14.0693 9.61806C14.1612 9.52134 14.2424 9.41488 14.3112 9.30056C14.4923 8.99839 14.5821 8.65028 14.5697 8.29822C14.5573 7.94616 14.4433 7.6052 14.2415 7.31648C14.0396 7.02777 13.7586 6.80364 13.4321 6.67114C13.1057 6.53864 12.748 6.50343 12.402 6.56976C12.0494 6.63147 11.7236 6.79785 11.4668 7.04725C11.2101 7.29666 11.0344 7.61755 10.9625 7.96818C10.896 8.27008 10.9073 8.58392 10.9953 8.88026C11.0834 9.1766 11.2452 9.44572 11.4657 9.66238C11.4956 9.69073 11.5196 9.72479 11.5362 9.76253C11.5528 9.80028 11.5616 9.84096 11.5623 9.88218V9.88376C11.5628 9.94161 11.5463 9.99834 11.5147 10.0468C11.4831 10.0953 11.4379 10.1334 11.3848 10.1563C11.0943 10.2752 10.8247 10.4397 10.5859 10.6434C11.2558 11.0406 11.7825 11.6397 12.0906 12.3549C12.3477 12.9378 12.477 13.5691 12.4697 14.2062V14.3572H15.4033C15.5721 14.3572 15.7341 14.2902 15.8535 14.1708C15.9729 14.0514 16.0399 13.8894 16.04 13.7206V13.3264C16.0464 12.7854 15.9377 12.2492 15.7209 11.7534Z" fill="url(#paint2_linear_0_573)"/>
<path d="M6.41601 10.6433C6.1768 10.439 5.90652 10.2743 5.61536 10.1552C5.56266 10.1325 5.51777 10.0949 5.48622 10.047C5.45468 9.99907 5.43786 9.94296 5.43786 9.88559C5.43749 9.84458 5.44556 9.80393 5.46157 9.76617C5.47757 9.72841 5.50116 9.69434 5.53088 9.66609C5.54893 9.64879 5.56633 9.63179 5.57933 9.61806C5.67125 9.52133 5.75233 9.41487 5.82116 9.30056C6.00226 8.9984 6.09205 8.65028 6.07969 8.29822C6.06733 7.94616 5.95335 7.6052 5.7515 7.31648C5.54965 7.02777 5.26856 6.80363 4.94215 6.67113C4.61574 6.53863 4.25796 6.50343 3.91198 6.56976C3.55942 6.63149 3.23358 6.79787 2.97685 7.04727C2.72012 7.29667 2.54437 7.61756 2.47246 7.96819C2.40601 8.27009 2.41732 8.58393 2.50534 8.88026C2.59337 9.1766 2.75522 9.44572 2.97571 9.66239C3.00564 9.69074 3.02961 9.72479 3.04619 9.76253C3.06277 9.80028 3.07163 9.84096 3.07226 9.88219V9.88376C3.07281 9.94162 3.05625 9.99834 3.02467 10.0468C2.99309 10.0953 2.9479 10.1334 2.89476 10.1563C2.16755 10.4575 1.58763 11.0322 1.27976 11.7566C1.06333 12.2527 0.954746 12.7892 0.96121 13.3304V13.7206C0.961207 13.8042 0.977672 13.887 1.00967 13.9642C1.04166 14.0415 1.08855 14.1117 1.14767 14.1708C1.20679 14.2299 1.27698 14.2768 1.35422 14.3088C1.43146 14.3408 1.51425 14.3572 1.59786 14.3572H4.53171V14.2099C4.52442 13.5729 4.65336 12.9416 4.90988 12.3585C5.21773 11.6417 5.74508 11.0412 6.41601 10.6433Z" fill="black"/>
<path d="M6.41601 10.6433C6.1768 10.439 5.90652 10.2743 5.61536 10.1552C5.56266 10.1325 5.51777 10.0949 5.48622 10.047C5.45468 9.99907 5.43786 9.94296 5.43786 9.88559C5.43749 9.84458 5.44556 9.80393 5.46157 9.76617C5.47757 9.72841 5.50116 9.69434 5.53088 9.66609C5.54893 9.64879 5.56633 9.63179 5.57933 9.61806C5.67125 9.52133 5.75233 9.41487 5.82116 9.30056C6.00226 8.9984 6.09205 8.65028 6.07969 8.29822C6.06733 7.94616 5.95335 7.6052 5.7515 7.31648C5.54965 7.02777 5.26856 6.80363 4.94215 6.67113C4.61574 6.53863 4.25796 6.50343 3.91198 6.56976C3.55942 6.63149 3.23358 6.79787 2.97685 7.04727C2.72012 7.29667 2.54437 7.61756 2.47246 7.96819C2.40601 8.27009 2.41732 8.58393 2.50534 8.88026C2.59337 9.1766 2.75522 9.44572 2.97571 9.66239C3.00564 9.69074 3.02961 9.72479 3.04619 9.76253C3.06277 9.80028 3.07163 9.84096 3.07226 9.88219V9.88376C3.07281 9.94162 3.05625 9.99834 3.02467 10.0468C2.99309 10.0953 2.9479 10.1334 2.89476 10.1563C2.16755 10.4575 1.58763 11.0322 1.27976 11.7566C1.06333 12.2527 0.954746 12.7892 0.96121 13.3304V13.7206C0.961207 13.8042 0.977672 13.887 1.00967 13.9642C1.04166 14.0415 1.08855 14.1117 1.14767 14.1708C1.20679 14.2299 1.27698 14.2768 1.35422 14.3088C1.43146 14.3408 1.51425 14.3572 1.59786 14.3572H4.53171V14.2099C4.52442 13.5729 4.65336 12.9416 4.90988 12.3585C5.21773 11.6417 5.74508 11.0412 6.41601 10.6433Z" fill="url(#paint3_linear_0_573)"/>
<defs>
<linearGradient id="paint0_linear_0_573" x1="5.85539" y1="0.890625" x2="11.3139" y2="1.07937" gradientUnits="userSpaceOnUse">
<stop stop-color="#EF9F1D"/>
<stop offset="1" stop-color="#D78808"/>
</linearGradient>
<linearGradient id="paint1_linear_0_573" x1="5.19228" y1="7.41602" x2="12.0245" y2="7.60718" gradientUnits="userSpaceOnUse">
<stop stop-color="#EF9F1D"/>
<stop offset="1" stop-color="#D78808"/>
</linearGradient>
<linearGradient id="paint2_linear_0_573" x1="10.5737" y1="6.53711" x2="16.2304" y2="6.66812" gradientUnits="userSpaceOnUse">
<stop stop-color="#EF9F1D"/>
<stop offset="1" stop-color="#D78808"/>
</linearGradient>
<linearGradient id="paint3_linear_0_573" x1="0.948722" y1="6.53711" x2="6.60623" y2="6.66815" gradientUnits="userSpaceOnUse">
<stop stop-color="#EF9F1D"/>
<stop offset="1" stop-color="#D78808"/>
</linearGradient>
</defs>
</svg>
