<svg width="40" height="40" viewBox="0 0 40 40" fill="none" xmlns="http://www.w3.org/2000/svg">
<path d="M37.8493 16.8521C37.8483 16.8463 37.8442 16.842 37.8431 16.8363C37.4786 14.7754 36.7574 12.7939 35.7118 10.981C35.7049 10.9668 35.7051 10.9511 35.697 10.9373C35.6889 10.9234 35.6757 10.9159 35.6669 10.9031C35.1524 10.0186 34.5642 9.1791 33.9086 8.39345C33.8986 8.37939 33.8957 8.36264 33.8844 8.34926C33.8697 8.33619 33.8544 8.32391 33.8384 8.31245C33.1825 7.5372 32.4631 6.81797 31.6877 6.1622C31.676 6.14596 31.6635 6.13033 31.6502 6.11539C31.6366 6.10395 31.6196 6.10107 31.6054 6.09101C30.8197 5.43542 29.9801 4.84721 29.0956 4.33264C29.0831 4.32407 29.0757 4.31095 29.0623 4.30326C29.0489 4.29557 29.0335 4.29557 29.0196 4.28882C27.2072 3.24344 25.2263 2.52221 23.1661 2.15757C23.1593 2.1562 23.1543 2.15132 23.1473 2.15026C23.1404 2.1492 23.1348 2.1517 23.1278 2.15076C21.0586 1.78308 18.9408 1.78308 16.8716 2.15076C16.8649 2.1517 16.8587 2.14907 16.8521 2.15026C16.8454 2.15145 16.8401 2.15651 16.8333 2.15757C14.7731 2.52221 12.7922 3.24344 10.9798 4.28882C10.9659 4.29551 10.9506 4.29539 10.9371 4.30326C10.9235 4.31114 10.9164 4.32407 10.9038 4.33264C10.0192 4.84722 9.17956 5.43544 8.39381 6.09107C8.37963 6.10107 8.36256 6.10401 8.34919 6.11539C8.33589 6.13033 8.32337 6.14596 8.31169 6.1622C7.53632 6.81814 6.81696 7.53754 6.16106 8.31295C6.14517 8.32438 6.12985 8.3366 6.11519 8.34957C6.10394 8.36295 6.101 8.3797 6.09106 8.39376C5.43569 9.17931 4.8477 10.0187 4.33331 10.903C4.32456 10.9159 4.31113 10.9234 4.30319 10.9372C4.29525 10.9509 4.29525 10.9668 4.28838 10.9809C3.2428 12.7939 2.52157 14.7753 2.15713 16.8362C2.15594 16.8419 2.15194 16.8462 2.15088 16.8521C2.14981 16.8579 2.15213 16.863 2.15125 16.8687C1.78292 18.9397 1.78292 21.0595 2.15125 23.1306C2.15213 23.1363 2.14988 23.1415 2.15088 23.1472C2.15188 23.1529 2.15613 23.1588 2.1575 23.1652C2.52203 25.2253 3.24313 27.2061 4.28838 29.0184C4.29525 29.0327 4.29513 29.0483 4.30319 29.0622C4.31585 29.0806 4.32952 29.0983 4.34413 29.1151C4.85615 29.9927 5.44076 30.8259 6.09181 31.6059C6.10175 31.62 6.10469 31.6368 6.11594 31.6501C6.12719 31.6635 6.145 31.6693 6.15775 31.6821C6.81486 32.4592 7.53567 33.18 8.31269 33.8372C8.32437 33.8534 8.33689 33.8691 8.35019 33.884C8.36538 33.8965 8.38375 33.9015 8.39975 33.9125C9.18408 34.5665 10.022 35.1533 10.9047 35.6668C10.9173 35.6753 10.9247 35.6884 10.9381 35.6961C10.9584 35.7059 10.9793 35.7145 11.0006 35.722C12.8076 36.7612 14.7816 37.4785 16.8343 37.8419C16.8411 37.8433 16.8461 37.8481 16.8531 37.8492C16.8675 37.8517 16.8817 37.8515 16.8962 37.853C18.95 38.215 21.0513 38.215 23.1051 37.853C23.1195 37.8515 23.1338 37.8517 23.1482 37.8492C23.1551 37.8479 23.1601 37.8429 23.1669 37.8419C25.2195 37.4786 27.1932 36.7613 29.0002 35.7222C29.0215 35.7148 29.0424 35.7062 29.0627 35.6964C29.0761 35.6887 29.0834 35.6756 29.096 35.667C29.9787 35.1535 30.8167 34.5667 31.601 33.9128C31.617 33.9017 31.6354 33.897 31.6506 33.8843C31.6639 33.8693 31.6764 33.8537 31.6881 33.8375C32.465 33.1802 33.1857 32.4592 33.8428 31.6821C33.8553 31.6696 33.8728 31.6642 33.8846 31.6501C33.8963 31.6359 33.8988 31.6199 33.9087 31.6059C34.5598 30.8259 35.1444 29.9927 35.6564 29.1151C35.671 29.0983 35.6847 29.0806 35.6974 29.0622C35.7054 29.0483 35.7053 29.0326 35.7122 29.0184C36.7574 27.2061 37.4784 25.2254 37.8429 23.1653C37.8443 23.1591 37.8484 23.1539 37.8495 23.1473C37.8506 23.1408 37.8483 23.1364 37.8491 23.1306C38.2175 21.0596 38.2175 18.9399 37.8491 16.8689C37.8481 16.8631 37.8502 16.8578 37.8493 16.8521ZM36.0586 25.1793L33.7093 24.3247C33.8351 23.9268 33.9416 23.5208 34.0327 23.1089L36.4977 23.5436C36.379 24.0959 36.2325 24.6419 36.0586 25.1793ZM34.9121 27.8872L32.7453 26.6362C32.9391 26.2656 33.1184 25.8867 33.2799 25.4981L35.6294 26.3532C35.4162 26.8763 35.1768 27.3882 34.9121 27.8872ZM33.3113 30.3532L31.3965 28.7466C31.6518 28.4148 31.8923 28.0718 32.1181 27.7177L34.2843 28.9683C33.9828 29.4467 33.6584 29.9084 33.3113 30.3532ZM28.9689 34.2837L27.7183 32.1176C28.072 31.8915 28.415 31.6509 28.7473 31.3959L30.3539 33.3106C29.9093 33.6573 29.4476 33.9816 28.9689 34.2837ZM26.3534 35.629L25.4985 33.2795C25.8871 33.118 26.2661 32.9385 26.6368 32.7448L27.8877 34.9116C27.3887 35.1763 26.8766 35.4158 26.3534 35.629ZM12.1127 34.9116L13.3638 32.7448C13.7344 32.9386 14.1134 33.118 14.502 33.2795L13.6471 35.629C13.1239 35.4158 12.6118 35.1763 12.1127 34.9116ZM9.64663 33.3106L11.2529 31.3959C11.5847 31.6512 11.9277 31.8918 12.2819 32.1176L11.0314 34.2837C10.5529 33.9822 10.0914 33.6578 9.64663 33.3106ZM15.6756 33.7088C16.0735 33.8346 16.4796 33.9411 16.8915 34.0323L16.4569 36.4973C15.9044 36.3786 15.3583 36.232 14.8207 36.0581L15.6756 33.7088ZM18.1222 34.2481C18.5347 34.3022 18.9524 34.3407 19.3753 34.3589V36.8589C18.8107 36.8383 18.2475 36.7894 17.6878 36.7123L18.1222 34.2481ZM20.6252 34.3589C21.0481 34.3407 21.4655 34.3022 21.8783 34.2481L22.3127 36.7122C21.753 36.7892 21.1898 36.8382 20.6252 36.8588V34.3589ZM23.109 34.0323C23.5209 33.9411 23.927 33.8346 24.3249 33.7088L25.1798 36.0581C24.6422 36.232 24.0961 36.3786 23.5436 36.4973L23.109 34.0323ZM20.0002 33.1247C17.4043 33.1247 14.8667 32.3549 12.7083 30.9127C10.5499 29.4705 8.86767 27.4207 7.87427 25.0224C6.88087 22.6241 6.62095 19.9851 7.12738 17.4391C7.63381 14.8931 8.88385 12.5545 10.7194 10.7189C12.555 8.88336 14.8936 7.63332 17.4396 7.12689C19.9856 6.62046 22.6246 6.88038 25.0229 7.87378C27.4212 8.86718 29.471 10.5494 30.9132 12.7078C32.3554 14.8662 33.1252 17.4038 33.1252 19.9997C33.1212 23.4795 31.7372 26.8155 29.2766 29.2761C26.816 31.7367 23.4799 33.1207 20.0002 33.1247ZM5.71606 28.9684L7.88225 27.7178C8.10833 28.0715 8.34888 28.4145 8.60388 28.7468L6.68913 30.3533C6.34258 29.9086 6.01823 29.447 5.71606 28.9684ZM4.371 26.3532L6.72044 25.4981C6.88194 25.8867 7.06138 26.2656 7.25506 26.6362L5.08825 27.8872C4.82353 27.3882 4.58414 26.8763 4.371 26.3532ZM3.50269 23.5434L5.96763 23.1088C6.05881 23.5206 6.16531 23.9266 6.29113 24.3245L3.94181 25.1793C3.76789 24.6418 3.62133 24.0958 3.50269 23.5434ZM3.94181 14.8201L6.29113 15.6747C6.16531 16.0726 6.05881 16.4786 5.96763 16.8904L3.50269 16.4559C3.62133 15.9036 3.76789 15.3576 3.94181 14.8201ZM5.08825 12.1122L7.25506 13.3632C7.06131 13.7338 6.88194 14.1127 6.72044 14.5013L4.371 13.6462C4.58414 13.1231 4.82353 12.6111 5.08825 12.1122ZM6.68913 9.6462L8.60388 11.2524C8.34863 11.5842 8.10808 11.9272 7.88225 12.2814L5.71606 11.0309C6.01765 10.5526 6.342 10.091 6.68913 9.6462ZM5.75163 18.122C5.6975 18.5345 5.659 18.9519 5.64081 19.3747H3.14081C3.16152 18.8101 3.21054 18.2469 3.28769 17.6872L5.75163 18.122ZM3.14106 20.6247H5.64106C5.65925 21.0474 5.69775 21.4648 5.75187 21.8774L3.28769 22.3122C3.21062 21.7525 3.16168 21.1893 3.14106 20.6247ZM11.0314 5.7157L12.2821 7.88176C11.9284 8.10789 11.5854 8.34847 11.2531 8.60351L9.64681 6.68876C10.0912 6.34214 10.5528 6.01778 11.0314 5.7157ZM13.6469 4.37045L14.5019 6.71989C14.1132 6.88139 13.7343 7.06089 13.3636 7.25457L12.1127 5.08782C12.6117 4.82306 13.1238 4.58363 13.6469 4.37045ZM27.8877 5.08782L26.6366 7.25457C26.266 7.06082 25.887 6.88139 25.4984 6.71989L26.3533 4.37045C26.8765 4.58362 27.3886 4.82305 27.8877 5.08782ZM30.3538 6.68876L28.7472 8.60351C28.4154 8.34818 28.0724 8.10759 27.7181 7.88176L28.9689 5.7157C29.4474 6.0172 29.909 6.34155 30.3538 6.68876ZM24.3252 6.29057C23.9272 6.16476 23.5211 6.05832 23.1092 5.96714L23.5439 3.50214C24.0963 3.62077 24.6424 3.76735 25.1801 3.94132L24.3252 6.29057ZM21.8785 5.75132C21.466 5.6972 21.0483 5.6587 20.6254 5.64051V3.14051C21.19 3.16112 21.7532 3.21003 22.3129 3.28707L21.8785 5.75132ZM19.3752 5.64051C18.9523 5.6587 18.5349 5.6972 18.1221 5.75132L17.6877 3.2872C18.2474 3.21014 18.8106 3.1612 19.3752 3.14057V5.64051ZM16.8914 5.96714C16.4795 6.05832 16.0734 6.16476 15.6754 6.29057L14.8206 3.94132C15.3582 3.76735 15.9043 3.62077 16.4567 3.50214L16.8914 5.96714ZM34.2843 11.0309L32.1181 12.2816C31.8921 11.9279 31.6515 11.5849 31.3965 11.2526L33.3113 9.64639C33.6578 10.0909 33.9822 10.5524 34.2843 11.0309ZM35.6294 13.6461L33.2799 14.5011C33.1184 14.1126 32.939 13.7336 32.7453 13.3631L34.9121 12.1122C35.1768 12.6111 35.4162 13.123 35.6294 13.6461ZM36.4977 16.4559L34.0327 16.8906C33.9416 16.4788 33.8351 16.0728 33.7093 15.6749L36.0586 14.8201C36.2325 15.3576 36.379 15.9036 36.4977 16.4559ZM34.3594 19.3747C34.3412 18.9519 34.3027 18.5346 34.2486 18.122L36.7127 17.6872C36.7897 18.2469 36.8386 18.8101 36.8592 19.3747H34.3594ZM34.2486 21.8774C34.3027 21.4649 34.3412 21.0474 34.3594 20.6247H36.8594C36.8388 21.1893 36.7899 21.7525 36.7129 22.3122L34.2486 21.8774ZM32.51 8.6872L30.5939 10.2946C30.3106 9.98568 30.0143 9.68943 29.7051 9.40589L31.3127 7.48976C31.7315 7.86872 32.1306 8.26786 32.51 8.6872ZM8.68769 7.48976L10.2953 9.40595C9.98631 9.68928 9.69004 9.98553 9.4065 10.2947L7.49038 8.6872C7.86933 8.26828 8.26844 7.86914 8.68769 7.48976ZM7.49038 31.3125L9.40644 29.7048C9.68977 30.0137 9.98604 30.3099 10.2952 30.5935L8.68769 32.5096C8.26894 32.1307 7.86983 31.7316 7.49038 31.3125ZM31.3127 32.5096L29.7051 30.5935C30.0141 30.3101 30.3103 30.0139 30.5939 29.7047L32.51 31.3124C32.131 31.7312 31.7319 32.1303 31.3127 32.5096Z" fill="#5E5E6B"/>
<path d="M26.875 13.75C26.875 13.5842 26.8092 13.4253 26.6919 13.3081C26.5747 13.1908 26.4158 13.125 26.25 13.125H13.75C13.5842 13.125 13.4253 13.1908 13.3081 13.3081C13.1908 13.4253 13.125 13.5842 13.125 13.75C13.125 13.9158 13.1908 14.0747 13.3081 14.1919C13.4253 14.3092 13.5842 14.375 13.75 14.375H18.75C19.47 14.376 20.1677 14.6252 20.7254 15.0806C21.2832 15.536 21.6669 16.1697 21.8118 16.875H13.75C13.5842 16.875 13.4253 16.9408 13.3081 17.0581C13.1908 17.1753 13.125 17.3342 13.125 17.5C13.125 17.6658 13.1908 17.8247 13.3081 17.9419C13.4253 18.0592 13.5842 18.125 13.75 18.125H21.8118C21.6669 18.8303 21.2832 19.464 20.7254 19.9194C20.1677 20.3748 19.47 20.624 18.75 20.625H13.75C13.6122 20.625 13.4782 20.6706 13.369 20.7546C13.2598 20.8386 13.1814 20.9564 13.146 21.0896C13.1106 21.2228 13.1203 21.3639 13.1734 21.4911C13.2266 21.6182 13.3203 21.7242 13.4399 21.7926L22.1899 26.7926C22.2612 26.8344 22.3401 26.8616 22.422 26.8727C22.5039 26.8837 22.5872 26.8785 22.667 26.8571C22.7469 26.8358 22.8217 26.7989 22.8872 26.7485C22.9526 26.698 23.0074 26.6351 23.0484 26.5634C23.0894 26.4916 23.1158 26.4125 23.126 26.3305C23.1362 26.2485 23.13 26.1652 23.1079 26.0856C23.0857 26.006 23.048 25.9316 22.9969 25.8667C22.9457 25.8018 22.8822 25.7476 22.8101 25.7074L16.1035 21.875H18.75C19.801 21.8731 20.8162 21.4932 21.6102 20.8047C22.4043 20.1162 22.9242 19.1651 23.075 18.125H26.25C26.4158 18.125 26.5747 18.0592 26.6919 17.9419C26.8092 17.8247 26.875 17.6658 26.875 17.5C26.875 17.3342 26.8092 17.1753 26.6919 17.0581C26.5747 16.9408 26.4158 16.875 26.25 16.875H23.075C22.9386 15.9248 22.4926 15.0461 21.8062 14.375H26.25C26.4158 14.375 26.5747 14.3092 26.6919 14.1919C26.8092 14.0747 26.875 13.9158 26.875 13.75Z" fill="#5E5E6B"/>
</svg>
