<svg width="15" height="14" viewBox="0 0 15 14" fill="none" xmlns="http://www.w3.org/2000/svg">
<g clip-path="url(#clip0_0_674)">
<path d="M9.25 9.1875C9.25 9.42922 9.05422 9.625 8.8125 9.625H6.1875C5.94578 9.625 5.75 9.42922 5.75 9.1875V7.875H0.5V11.8125C0.5 12.5125 1.1125 13.125 1.8125 13.125H13.1875C13.8875 13.125 14.5 12.5125 14.5 11.8125V7.875H9.25V9.1875ZM13.1875 3.5H11V2.1875C11 1.4875 10.3875 0.875 9.6875 0.875H5.3125C4.6125 0.875 4 1.4875 4 2.1875V3.5H1.8125C1.1125 3.5 0.5 4.1125 0.5 4.8125V7H14.5V4.8125C14.5 4.1125 13.8875 3.5 13.1875 3.5ZM9.25 3.5H5.75V2.625H9.25V3.5Z" fill="black"/>
<path d="M9.25 9.1875C9.25 9.42922 9.05422 9.625 8.8125 9.625H6.1875C5.94578 9.625 5.75 9.42922 5.75 9.1875V7.875H0.5V11.8125C0.5 12.5125 1.1125 13.125 1.8125 13.125H13.1875C13.8875 13.125 14.5 12.5125 14.5 11.8125V7.875H9.25V9.1875ZM13.1875 3.5H11V2.1875C11 1.4875 10.3875 0.875 9.6875 0.875H5.3125C4.6125 0.875 4 1.4875 4 2.1875V3.5H1.8125C1.1125 3.5 0.5 4.1125 0.5 4.8125V7H14.5V4.8125C14.5 4.1125 13.8875 3.5 13.1875 3.5ZM9.25 3.5H5.75V2.625H9.25V3.5Z" fill="url(#paint0_linear_0_674)"/>
</g>
<defs>
<linearGradient id="paint0_linear_0_674" x1="0.46865" y1="0.875" x2="14.9751" y2="1.4255" gradientUnits="userSpaceOnUse">
<stop stop-color="#EF9F1D"/>
<stop offset="1" stop-color="#D78808"/>
</linearGradient>
<clipPath id="clip0_0_674">
<rect width="14" height="14" fill="white" transform="translate(0.5)"/>
</clipPath>
</defs>
</svg>
